<svg xmlns="http://www.w3.org/2000/svg" xmlns:xlink="http://www.w3.org/1999/xlink" width="500" zoomAndPan="magnify" viewBox="0 0 375 374.999991" height="500" preserveAspectRatio="xMidYMid meet" version="1.0"><defs><g/><clipPath id="bacba6cfdf"><path d="M 115.402344 90.515625 L 258.371094 90.515625 L 258.371094 236.480469 L 115.402344 236.480469 Z M 115.402344 90.515625 " clip-rule="nonzero"/></clipPath><clipPath id="ef6ada1e56"><path d="M 241.324219 226.011719 L 208.722656 226.011719 C 208.652344 226.011719 208.589844 225.910156 208.523438 225.710938 L 194.238281 196.59375 L 193.066406 194.207031 C 192.964844 193.984375 191.84375 191.667969 189.699219 187.269531 C 188.179688 184.148438 186.144531 179.980469 183.597656 174.765625 L 216.34375 174.765625 C 217.042969 176.1875 217.757812 177.648438 218.492188 179.152344 C 219.089844 180.414062 226.699219 196 241.324219 225.914062 Z M 171.703125 207.214844 C 168.980469 201.632812 167.460938 198.527344 167.148438 197.902344 C 167.148438 197.898438 167.144531 197.898438 167.144531 197.898438 L 155.785156 174.769531 L 171.878906 174.769531 C 174.296875 179.71875 177.0625 185.382812 180.175781 191.761719 C 180.1875 191.78125 180.195312 191.800781 180.207031 191.820312 C 181.808594 195.101562 183.320312 198.1875 184.734375 201.078125 C 190.285156 212.433594 194.359375 220.75 196.953125 226.035156 L 180.890625 226.035156 C 177.007812 218.082031 173.949219 211.8125 171.703125 207.21875 M 132.746094 225.117188 L 150.695312 188.328125 C 150.734375 188.40625 153.03125 193.101562 157.585938 202.40625 C 158.914062 205.121094 160.4375 208.226562 162.144531 211.722656 C 164.203125 215.921875 166.53125 220.683594 169.140625 226.015625 L 132.25 226.015625 C 132.511719 225.484375 132.683594 225.1875 132.746094 225.117188 M 170.4375 147.847656 C 180.9375 126.375 186.386719 115.242188 186.785156 114.445312 L 197.753906 136.878906 C 198.28125 137.9375 202.785156 147.113281 211.261719 164.398438 L 178.527344 164.398438 C 176.125 159.488281 173.429688 153.972656 170.4375 147.847656 M 244.117188 207.765625 C 231.621094 182.046875 225.175781 168.816406 224.773438 168.085938 C 224.507812 167.554688 217.828125 153.894531 204.734375 127.109375 C 192.835938 102.847656 186.886719 90.652344 186.886719 90.515625 L 186.785156 90.515625 C 186.785156 90.585938 186.152344 91.847656 184.894531 94.308594 L 180.105469 104.078125 C 179.507812 105.34375 172.363281 119.929688 158.671875 147.847656 C 159.136719 148.714844 159.402344 149.210938 159.472656 149.34375 C 160.140625 150.71875 162.585938 155.738281 166.820312 164.398438 L 150.644531 164.398438 L 150.644531 164.441406 C 150.546875 164.550781 150.367188 164.898438 150.097656 165.496094 L 135.738281 194.90625 C 135.273438 195.769531 128.496094 209.628906 115.402344 236.480469 L 185.988281 236.480469 C 185.976562 236.453125 185.960938 236.425781 185.949219 236.398438 L 202.074219 236.398438 C 202.109375 236.449219 202.132812 236.480469 202.140625 236.480469 L 258.175781 236.480469 Z M 244.117188 207.765625 " clip-rule="nonzero"/></clipPath></defs><path stroke-linecap="butt" transform="matrix(0.00837985, -0.383736, 0.383736, 0.00837985, 25.321882, 194.476173)" fill="none" stroke-linejoin="miter" d="M 37.372176 52.86656 L 44.421182 68.00226 L 51.536605 67.999569 L 27.602018 16.606712 L 23.927187 16.605525 L 2.206634 67.997785 L 5.576002 67.995463 L 12.045615 52.869936 Z M 35.834368 49.57144 L 13.439443 49.571873 L 24.005191 24.83905 L 24.310431 24.832384 Z M 35.834368 49.57144 " stroke="#000000" stroke-width="2.202843" stroke-opacity="1" stroke-miterlimit="4"/><path stroke-linecap="butt" transform="matrix(0.0932572, -0.372326, 0.372326, 0.0932572, 27.707614, 159.069438)" fill="none" stroke-linejoin="miter" d="M 9.537985 67.9967 L 9.539863 16.609019 L 26.44283 16.61386 C 30.503195 16.614526 34.22075 17.257104 37.590569 18.563811 C 40.967787 19.858174 43.868838 21.639004 46.27645 23.921119 C 48.703806 26.198289 50.595725 28.892841 51.94728 32.02699 C 53.296362 35.151268 53.974176 38.527611 53.968378 42.14862 C 53.970054 45.925129 53.275531 49.393408 51.872464 52.546058 C 50.481741 55.706108 48.562608 58.431971 46.139754 60.738445 C 43.7243 63.032574 40.898882 64.820882 37.663501 66.103369 C 34.433047 67.363639 30.982635 67.997057 27.322138 68.001149 Z M 16.220728 64.770126 L 24.309369 64.769004 C 28.317901 64.772162 31.736205 64.094329 34.537138 62.752795 C 37.365214 61.393972 39.677244 59.650321 41.478153 57.499626 C 43.298807 55.343987 44.615815 52.936803 45.439048 50.275603 C 46.272154 47.61193 46.69552 44.945971 46.691874 42.292543 C 46.693043 39.36513 46.208005 36.549007 45.224415 33.836775 C 44.248225 31.112197 42.808137 28.713642 40.921425 26.626292 C 39.047057 24.546341 36.713774 22.896079 33.911706 21.677979 C 31.129381 20.454933 27.93265 19.839275 24.30177 19.83595 L 16.223001 19.834599 Z M 16.220728 64.770126 " stroke="#000000" stroke-width="2.202843" stroke-opacity="1" stroke-miterlimit="4"/><path stroke-linecap="butt" transform="matrix(0.221312, -0.3136, 0.3136, 0.221312, 48.977836, 103.40486)" fill="none" stroke-linejoin="miter" d="M 37.36914 52.870099 L 44.420481 67.998115 L 51.533167 67.998414 L 27.602324 16.614518 L 23.928846 16.616068 L 2.204591 67.995393 L 5.570437 67.99919 L 12.044105 52.867782 Z M 35.827437 49.573531 L 13.444705 49.574964 L 24.000319 24.836527 L 24.30795 24.831181 Z M 35.827437 49.573531 " stroke="#000000" stroke-width="2.202843" stroke-opacity="1" stroke-miterlimit="4"/><path stroke-linecap="butt" transform="matrix(0.286641, -0.255266, 0.255266, 0.286641, 70.760479, 75.274111)" fill="none" stroke-linejoin="miter" d="M 55.581272 45.093241 L 41.041958 45.091677 L 41.043408 48.104679 L 49.260914 48.104644 L 49.258816 61.389737 C 47.055863 62.807579 44.803376 63.867872 42.500522 64.556247 C 40.204436 65.237022 37.585813 65.576054 34.652253 65.580113 C 30.795781 65.57994 27.417362 64.997047 24.523765 63.823832 C 21.629335 62.636249 19.221278 61.009629 17.31313 58.928774 C 15.412582 56.854687 13.986534 54.385501 13.028218 51.528817 C 12.076669 48.664533 11.598676 45.51333 11.601837 42.081977 C 11.600726 38.701329 12.054909 35.589863 12.957618 32.755178 C 13.867095 29.912892 15.224985 27.469936 17.030456 25.411941 C 18.843527 23.360714 21.065234 21.768786 23.674438 20.644589 C 26.298011 19.519561 29.343643 18.96118 32.818101 18.961846 C 35.110182 18.958886 37.26512 19.201743 39.268548 19.691247 C 41.279575 20.187519 43.068193 20.826419 44.634403 21.607946 C 46.200612 22.389474 47.484443 23.27385 48.486727 24.275445 C 49.489843 25.291408 50.146451 26.298601 50.443846 27.326591 L 55.727792 27.330615 C 55.283384 26.253469 54.535687 25.042509 53.491468 23.690133 C 52.432881 22.33859 51.004872 21.080519 49.185472 19.909984 C 47.380441 18.738617 45.139137 17.751094 42.461561 16.947414 C 39.798353 16.142902 36.660645 15.733488 33.034901 15.734373 C 28.882626 15.729702 25.045894 16.319471 21.55261 17.487646 C 18.044958 18.656654 15.021943 20.352643 12.475133 22.554478 C 9.928322 24.756313 7.943928 27.459002 6.52195 30.662544 C 5.114341 33.865255 4.409505 37.503026 4.406611 41.561489 C 4.405945 45.035948 4.961492 48.406119 6.058883 51.672834 C 7.155441 54.925181 8.844775 57.833249 11.112516 60.397868 C 13.402226 62.968424 16.296697 65.028214 19.823834 66.561206 C 23.351803 68.108567 27.55577 68.881537 32.442503 68.872517 C 36.126553 68.882672 39.375726 68.478298 42.212824 67.679699 C 45.055859 66.859131 47.40454 65.966269 49.258037 64.986744 L 49.259487 67.999746 L 55.581294 68.001345 Z M 55.581272 45.093241 " stroke="#000000" stroke-width="2.202843" stroke-opacity="1" stroke-miterlimit="4"/><path stroke-linecap="butt" transform="matrix(0.334681, -0.187916, 0.187916, 0.334681, 100.169844, 51.650238)" fill="none" stroke-linejoin="miter" d="M 8.819495 16.606476 L 8.817792 67.995427 L 41.998637 67.997953 L 41.996066 63.969819 L 15.49053 63.968765 L 15.488806 42.4571 L 38.248939 42.456071 L 38.247421 39.070464 L 15.487288 39.071493 L 15.483519 20.639974 L 41.997929 20.64601 L 42.00034 16.609002 Z M 8.819495 16.606476 " stroke="#000000" stroke-width="2.202843" stroke-opacity="1" stroke-miterlimit="4"/><path stroke-linecap="butt" transform="matrix(0.367533, -0.11065, 0.11065, 0.367533, 128.461431, 37.189319)" fill="none" stroke-linejoin="miter" d="M 50.221622 16.613516 L 50.227198 55.886788 L 49.921121 55.879666 L 9.174123 15.734203 L 8.823199 15.734836 L 8.817079 68.003005 L 12.187904 67.997519 L 12.192074 28.727181 L 12.47866 28.728435 L 53.235403 68.876832 L 53.596073 68.879133 L 53.592447 16.60803 Z M 50.221622 16.613516 " stroke="#000000" stroke-width="2.202843" stroke-opacity="1" stroke-miterlimit="4"/><path stroke-linecap="butt" transform="matrix(0.383185, -0.0222019, 0.0222019, 0.383185, 166.300803, 27.797728)" fill="none" stroke-linejoin="miter" d="M 52.054644 58.531217 C 47.062089 63.237084 41.135771 65.584968 34.285848 65.575459 C 30.462879 65.578227 27.085753 64.923818 24.14431 63.611644 C 21.214205 62.279739 18.777953 60.51771 16.815233 58.324382 C 14.85369 56.110733 13.369953 53.567973 12.364611 50.685941 C 11.359858 47.79375 10.861777 44.778003 10.85962 41.648272 C 10.859076 38.314751 11.392458 35.26702 12.439446 32.503901 C 13.486434 29.740782 14.970609 27.349596 16.881222 25.339913 C 18.801995 23.330818 21.063806 21.769638 23.677403 20.646802 C 26.291 19.523965 29.147718 18.955505 32.22606 18.960564 C 34.336255 18.9605 36.248851 19.20384 37.98417 19.691763 C 39.729649 20.180275 41.272668 20.820162 42.603067 21.610837 C 43.954964 22.382369 45.064938 23.282602 45.924595 24.280468 C 46.783664 25.288493 47.377394 26.301533 47.715357 27.330337 L 53.148912 27.32914 C 52.419548 25.666009 51.479329 24.123186 50.328258 22.700669 C 49.187346 21.278742 47.74959 20.053692 46.035311 19.026698 C 44.321032 17.999704 42.318893 17.190496 40.007983 16.608058 C 37.717394 16.026798 35.094183 15.73209 32.158081 15.735272 C 27.907212 15.733635 24.028602 16.344828 20.52284 17.55869 C 17.026649 18.783302 14.020364 20.525618 11.523127 22.807137 C 9.026479 25.078495 7.093801 27.820879 5.714344 31.04386 C 4.356973 34.237538 3.669882 37.826847 3.674568 41.792646 C 3.670402 45.207447 4.220766 48.552436 5.326247 51.817454 C 6.422746 55.061562 8.120738 57.953144 10.411239 60.471289 C 12.722061 62.990611 15.662348 65.026503 19.232688 66.568805 C 22.803029 68.111106 27.070707 68.878279 32.014814 68.879306 C 35.144545 68.877149 37.944729 68.580655 40.424937 68.000574 C 42.895573 67.409744 45.047564 66.688316 46.870748 65.835702 C 48.714841 64.974104 50.246327 64.053617 51.464617 63.084402 C 52.693657 62.105614 53.619813 61.251996 54.254424 60.503816 Z M 52.054644 58.531217 " stroke="#000000" stroke-width="2.202843" stroke-opacity="1" stroke-miterlimit="4"/><path stroke-linecap="butt" transform="matrix(0.379166, 0.0596414, -0.0596414, 0.379166, 202.361065, 27.465722)" fill="none" stroke-linejoin="miter" d="M 2.206154 16.608121 L 19.964651 48.553864 L 19.964406 68.004497 L 26.650412 68.003639 L 26.649984 47.89377 L 44.703059 16.609653 L 40.747641 16.613692 L 25.04191 43.696154 L 24.732399 43.693328 L 9.768846 16.613595 Z M 2.206154 16.608121 " stroke="#000000" stroke-width="2.202843" stroke-opacity="1" stroke-miterlimit="4"/><path stroke-linecap="butt" transform="matrix(0.333957, 0.1892, -0.1892, 0.333957, 256.218064, 42.52751)" fill="none" stroke-linejoin="miter" d="M 52.056599 58.537997 C 47.054358 63.231768 41.132972 65.580538 34.29244 65.584308 C 30.463844 65.577742 27.084519 64.918954 24.145609 63.612958 C 21.214376 62.27922 18.775778 60.514325 16.80709 58.319452 C 14.851094 56.105691 13.374737 53.561711 12.364149 50.683674 C 11.366253 47.786748 10.85978 44.786865 10.861262 41.651265 C 10.86601 38.314968 11.38723 35.270912 12.442631 32.509064 C 13.493017 29.738362 14.968667 27.346664 16.883453 25.337809 C 18.798239 23.328954 21.059776 21.766978 23.676917 20.646867 C 26.289042 19.5179 29.140178 18.955336 32.230326 18.959175 C 34.335877 18.959377 36.253693 19.206301 37.978758 19.691091 C 39.731565 20.183558 41.273037 20.819149 42.608189 21.606719 C 43.96105 22.384256 45.064799 23.279531 45.923274 24.278673 C 46.786766 25.28667 47.386399 26.30379 47.722174 27.330035 L 53.15015 27.331147 C 52.416584 25.664699 51.475521 24.127503 50.330797 22.705689 C 49.186074 21.283874 47.755338 20.059188 46.024718 19.027792 C 44.32184 18.004072 42.320257 17.196368 40.011114 16.609697 C 37.715842 16.026864 35.093819 15.734421 32.153899 15.72735 C 27.897345 15.729303 24.023533 16.344894 20.522429 17.556415 C 17.026342 18.776792 14.018075 20.527882 11.525372 22.817362 C 9.03149 25.084117 7.086234 27.823744 5.717346 31.043918 C 4.356135 34.236351 3.676371 37.826406 3.676875 41.791358 C 3.671825 45.209705 4.218699 48.549302 5.322516 51.819003 C 6.425153 55.065978 8.119883 57.954116 10.410542 60.469546 C 12.720089 62.997668 15.66011 65.02824 19.23562 66.570116 C 22.806114 68.103137 27.071152 68.880068 32.015685 68.874345 C 35.14243 68.880843 37.948384 68.589511 40.419674 67.996511 C 42.895981 67.412365 45.045873 66.685635 46.874367 65.825173 C 48.716732 64.968549 50.246252 64.055228 51.462925 63.08521 C 52.688452 62.110175 53.628271 61.250218 54.259653 60.506518 Z M 52.056599 58.537997 " stroke="#000000" stroke-width="2.202843" stroke-opacity="1" stroke-miterlimit="4"/><path stroke-linecap="butt" transform="matrix(0.284199, 0.257983, -0.257983, 0.284199, 286.840591, 61.841384)" fill="none" stroke-linejoin="miter" d="M 8.818273 16.606674 L 8.818982 67.997802 L 15.490261 68.003372 L 15.492501 45.308688 L 18.712787 45.3131 C 20.081962 45.307257 21.228549 45.434744 22.138867 45.680492 C 23.042345 45.918705 23.864908 46.340327 24.592179 46.944664 C 25.335217 47.520944 26.026091 48.282024 26.65112 49.212833 C 27.283685 50.136802 28.049581 51.283358 28.926897 52.658648 L 34.722474 61.23869 C 35.460314 62.369481 36.181803 63.39141 36.893087 64.32639 C 37.604371 65.261369 38.38011 66.055372 39.197696 66.728917 C 40.037888 67.381942 40.978127 67.902916 42.032787 68.292532 C 43.087448 68.682149 44.346261 68.872701 45.816066 68.871723 C 46.889494 68.873193 47.770588 68.829341 48.452505 68.732629 C 49.141264 68.643452 49.830827 68.388607 50.512272 68.003684 L 50.507425 65.27287 C 50.273937 65.333628 50.026768 65.379314 49.773454 65.403089 C 49.534516 65.427559 49.296273 65.437653 49.04435 65.432677 C 48.014048 65.433291 47.1064 65.281334 46.320708 64.991179 C 45.542552 64.694184 44.806939 64.262356 44.113869 63.695697 C 43.42764 63.136573 42.768882 62.456297 42.137597 61.654871 C 41.507007 60.839068 40.852531 59.921244 40.167328 58.893865 C 38.100016 55.904821 36.500516 53.521978 35.383204 51.746031 C 34.259747 49.948172 33.361215 48.564652 32.695143 47.58863 C 32.036607 46.605768 31.501782 45.895462 31.083131 45.464551 C 30.672016 45.0268 30.178706 44.649917 29.59497 44.355118 L 28.855882 43.99517 L 28.856104 43.692583 C 31.204332 43.553963 33.210544 43.03857 34.895956 42.154635 C 36.595743 41.271395 37.982154 40.164067 39.061335 38.854561 C 40.13437 37.523144 40.916525 36.09841 41.40919 34.551608 C 41.894319 33.011647 42.139815 31.510531 42.146373 30.033885 C 42.137749 28.722214 41.883458 27.276184 41.375268 25.717011 C 40.860238 24.150303 39.972717 22.688064 38.719545 21.337829 C 37.473214 19.995129 35.776952 18.868429 33.630065 17.972104 C 31.476337 17.068244 28.75339 16.61237 25.468066 16.612019 Z M 15.48514 19.832529 L 22.906045 19.831116 C 24.771532 19.842066 26.444462 20.110279 27.931675 20.643291 C 29.418889 21.176303 30.708095 21.93029 31.778774 22.882648 C 32.870668 23.843236 33.694763 24.978197 34.257201 26.309442 C 34.813495 27.618776 35.096538 29.066197 35.100186 30.629792 C 35.093738 31.955144 34.834673 33.289896 34.329828 34.641582 C 33.811303 35.978197 33.03888 37.20167 32.013253 38.297625 C 30.987627 39.393579 29.726648 40.290832 28.230318 40.989382 C 26.742218 41.666717 25.010647 42.015272 23.05137 42.006992 L 15.493548 42.008988 Z M 15.48514 19.832529 " stroke="#000000" stroke-width="2.202843" stroke-opacity="1" stroke-miterlimit="4"/><path stroke-linecap="butt" transform="matrix(0.225341, 0.310717, -0.310717, 0.225341, 311.439476, 86.426728)" fill="none" stroke-linejoin="miter" d="M 8.819446 16.610708 L 8.813398 67.999504 L 41.999128 68.004474 L 41.997467 63.967747 L 15.486743 63.963571 L 15.485639 42.452561 L 38.250696 42.455765 L 38.251409 39.074489 L 15.486351 39.071286 L 15.487875 20.642253 L 41.998599 20.646429 L 41.996938 16.609703 Z M 8.819446 16.610708 " stroke="#000000" stroke-width="2.202843" stroke-opacity="1" stroke-miterlimit="4"/><path stroke-linecap="butt" transform="matrix(0.156451, 0.350495, -0.350495, 0.156451, 328.877121, 112.729805)" fill="none" stroke-linejoin="miter" d="M 37.373533 52.876122 L 44.419254 68.001936 L 51.530621 67.999933 L 27.605905 16.608172 L 23.929328 16.605363 L 2.201597 68.003317 L 5.577476 68.005643 L 12.043569 52.870544 Z M 35.829891 49.568024 L 13.447993 49.574418 L 23.998761 24.839033 L 24.299459 24.839516 Z M 35.829891 49.568024 " stroke="#000000" stroke-width="2.202843" stroke-opacity="1" stroke-miterlimit="4"/><path stroke-linecap="butt" transform="matrix(0.0784504, 0.375725, -0.375725, 0.0784504, 341.727433, 145.618862)" fill="none" stroke-linejoin="miter" d="M 27.819572 68.003211 L 27.820283 20.647011 L 47.502531 20.639571 L 47.502664 16.605732 L 1.465752 16.610175 L 1.465619 20.644014 L 21.145788 20.646535 L 21.15504 68.004815 Z M 27.819572 68.003211 " stroke="#000000" stroke-width="2.202843" stroke-opacity="1" stroke-miterlimit="4"/><path stroke-linecap="butt" transform="matrix(0.00893571, 0.383724, -0.383724, 0.00893571, 346.863527, 178.144764)" fill="none" stroke-linejoin="miter" d="M 11.736737 16.612606 L 11.741296 68.000585 L 18.429385 68.003632 L 18.425063 16.605479 Z M 11.736737 16.612606 " stroke="#000000" stroke-width="2.202843" stroke-opacity="1" stroke-miterlimit="4"/><path stroke-linecap="butt" transform="matrix(-0.061989, 0.378789, -0.378789, -0.061989, 346.517677, 203.949889)" fill="none" stroke-linejoin="miter" d="M 2.200722 16.609277 L 23.718275 68.001808 L 28.121898 68.003026 L 48.967506 16.607725 L 45.152798 16.613255 L 28.054938 58.897763 L 27.745416 58.896855 L 10.13126 16.610812 Z M 2.200722 16.609277 " stroke="#000000" stroke-width="2.202843" stroke-opacity="1" stroke-miterlimit="4"/><path stroke-linecap="butt" transform="matrix(-0.137513, 0.358349, -0.358349, -0.137513, 339.409669, 237.355693)" fill="none" stroke-linejoin="miter" d="M 8.814324 16.608088 L 8.817523 68.003601 L 41.998828 68.002592 L 41.99898 63.969279 L 15.4858 63.962219 L 15.484659 42.455601 L 38.257529 42.459079 L 38.254267 39.070217 L 15.481397 39.066739 L 15.485943 20.642833 L 41.995477 20.640391 L 41.995629 16.607079 Z M 8.814324 16.608088 " stroke="#000000" stroke-width="2.202843" stroke-opacity="1" stroke-miterlimit="4"/><path stroke-linecap="butt" transform="matrix(-0.20504, 0.324472, -0.324472, -0.20504, 326.885813, 266.114397)" fill="none" stroke-linejoin="miter" d="M 2.720137 55.005034 C 2.821188 57.108159 3.370086 59.02459 4.369998 60.740288 C 5.378513 62.450549 6.746097 63.909831 8.481353 65.112696 C 10.211171 66.306957 12.252502 67.232135 14.610782 67.896834 C 16.963625 68.552928 19.530598 68.88109 22.320304 68.875881 C 25.160732 68.874736 27.715768 68.53627 29.985411 67.860481 C 32.266823 67.165215 34.222096 66.182454 35.828586 64.914467 C 37.443679 63.641043 38.684179 62.098703 39.564127 60.290613 C 40.438638 58.473921 40.882873 56.471654 40.885959 54.266607 C 40.883861 51.23416 40.12288 48.753499 38.608453 46.833227 C 37.105796 44.893478 35.205593 43.277179 32.925052 41.973456 C 30.658551 40.6729 28.189214 39.584791 25.508438 38.714567 C 22.839431 37.824866 20.371944 36.892092 18.083331 35.918517 C 15.811926 34.934068 13.924978 33.815022 12.403011 32.549608 C 10.884211 31.270155 10.123874 29.571608 10.132872 27.471174 C 10.130324 26.305022 10.38593 25.204475 10.89969 24.169532 C 11.410284 23.148628 12.171802 22.258091 13.175641 21.503358 C 14.174043 20.740021 15.420203 20.12109 16.882874 19.654273 C 18.359585 19.190623 20.04241 18.957888 21.959429 18.962403 C 25.133172 18.955289 27.835639 19.631225 30.061394 20.981608 C 32.295751 22.326554 33.605073 24.43663 33.986191 27.325877 L 38.986381 27.332357 C 38.689304 25.50961 38.023182 23.883952 36.996619 22.449949 C 35.964619 21.007342 34.670458 19.778556 33.110967 18.77763 C 31.537436 17.773538 29.768776 17.01314 27.782343 16.498705 C 25.801346 15.992874 23.735269 15.733428 21.580945 15.734405 C 19.339215 15.730423 17.20036 16.022595 15.16438 16.610922 C 13.137002 17.193813 11.342922 18.050636 9.799346 19.170518 C 8.261206 20.299003 7.040603 21.720421 6.128932 23.440207 C 5.220429 25.145954 4.771654 27.102934 4.763132 29.299378 C 4.774253 32.193696 5.502138 34.526729 6.978033 36.290768 C 8.439888 38.051641 10.292955 39.517144 12.511423 40.703588 C 14.741662 41.870555 17.156633 42.872631 19.756337 43.709815 C 22.350604 44.538397 24.758765 45.472543 26.977655 46.526294 C 29.210583 47.583212 31.054094 48.862134 32.519061 50.380265 C 33.984027 51.898396 34.722253 53.923924 34.721969 56.476325 C 34.720479 59.655505 33.553988 61.981753 31.225663 63.441029 C 28.908211 64.917512 25.821144 65.652373 21.95586 65.651051 C 18.872689 65.649085 16.403519 65.247081 14.539747 64.450476 C 12.679141 63.639831 11.246009 62.667405 10.273867 61.548136 C 9.304892 60.414827 8.647486 59.241137 8.303916 58.049708 C 7.946307 56.855112 7.75359 55.845249 7.706287 55.008348 Z M 2.720137 55.005034 " stroke="#000000" stroke-width="2.202843" stroke-opacity="1" stroke-miterlimit="4"/><path stroke-linecap="butt" transform="matrix(-0.305751, 0.232034, -0.232034, -0.305751, 291.981225, 309.276426)" fill="none" stroke-linejoin="miter" d="M 52.051321 58.534821 C 47.058201 63.228749 41.133913 65.580698 34.290764 65.574455 C 30.464067 65.583283 27.082869 64.920905 24.142973 63.609685 C 21.215382 62.282251 18.77267 60.51791 16.814838 58.316662 C 14.8489 56.109261 13.367263 53.566722 12.369929 50.689045 C 11.362534 47.790956 10.862607 44.779725 10.862043 41.649199 C 10.862633 38.315134 11.388794 35.264943 12.442482 32.512883 C 13.492261 29.732305 14.973372 27.342944 16.885815 25.344801 C 18.796303 23.332398 21.058432 21.765718 23.678354 20.636653 C 26.292124 19.515696 29.142883 18.957866 32.230631 18.963165 C 34.329206 18.958784 36.251317 19.203762 37.988859 19.691947 C 39.7264 20.180132 41.267644 20.825969 42.60253 21.609046 C 43.957826 22.382062 45.068184 23.275816 45.925497 24.284155 C 46.788961 25.284388 47.385698 26.299391 47.715707 27.329165 L 53.148346 27.325373 C 52.412769 25.668416 51.47503 24.126332 50.328978 22.70723 C 49.189078 21.28002 47.750823 20.06077 46.03267 19.025159 C 44.316471 18.003807 42.310024 17.196566 40.007177 16.611544 C 37.718588 16.024568 35.092488 15.730817 32.157393 15.726384 C 27.901253 15.728706 24.02636 16.339755 20.518456 17.561485 C 17.024812 18.781261 14.024823 20.528982 11.526596 22.810802 C 9.026416 25.078363 7.09343 27.827471 5.717578 31.037715 C 4.355985 34.246005 3.670086 37.826543 3.676094 41.791635 C 3.672973 45.21321 4.217855 48.552404 5.318847 51.815369 C 6.417885 55.064074 8.121451 57.953899 10.413332 60.472536 C 12.719473 62.98922 15.657283 65.027084 19.230961 66.563762 C 22.812746 68.106593 27.066512 68.881799 32.012671 68.879319 C 35.143197 68.878754 37.943583 68.589319 40.419981 68.002906 C 42.896379 67.416492 45.041772 66.693862 46.870417 65.83306 C 48.713322 64.970304 50.236949 64.056886 51.461708 63.082745 C 52.694575 62.114756 53.621556 61.246805 54.260822 60.505456 Z M 52.051321 58.534821 " stroke="#000000" stroke-width="2.202843" stroke-opacity="1" stroke-miterlimit="4"/><path stroke-linecap="butt" transform="matrix(-0.351533, 0.154105, -0.154105, -0.351533, 261.983366, 330.023767)" fill="none" stroke-linejoin="miter" d="M 3.679867 42.295279 C 3.673176 45.048131 4.203646 47.96979 5.253783 51.074813 C 6.299835 54.189156 7.95328 57.058614 10.196627 59.697742 C 12.458615 62.345042 15.321745 64.533587 18.791251 66.276785 C 22.264843 68.010661 26.428452 68.880262 31.276843 68.87218 C 34.553579 68.875178 37.527587 68.478777 40.189543 67.678891 C 42.868993 66.864449 45.266011 65.781739 47.398093 64.416206 C 49.520853 63.046586 51.368716 61.467561 52.928273 59.684365 C 54.491916 57.891848 55.786405 56.003564 56.789011 54.020661 C 57.791617 52.037758 58.547157 50.035442 59.060864 48.027121 C 59.574571 46.0188 59.833549 44.109939 59.828475 42.296453 C 59.83108 39.552921 59.273797 36.641732 58.150241 33.526749 C 57.0226 30.421086 55.28233 27.546903 52.929432 24.904197 C 50.58994 22.256257 47.617258 20.064135 44.011386 18.32783 C 40.414834 16.595611 36.169636 15.734691 31.279876 15.735749 C 26.42625 15.730424 22.26312 16.583399 18.790485 18.294673 C 15.31785 20.005948 12.456171 22.173957 10.205449 24.798701 C 7.954726 27.423445 6.308707 30.291054 5.245813 33.425404 C 4.196325 36.554519 3.676088 39.515613 3.679867 42.295279 Z M 10.857457 42.297073 C 10.866969 38.878735 11.387337 35.739906 12.436053 32.86603 C 13.494091 29.996239 14.937596 27.539895 16.774742 25.478354 C 18.617123 23.43022 20.777938 21.821706 23.267656 20.679626 C 25.76146 19.528224 28.480359 18.953317 31.424353 18.954904 C 34.313571 18.954702 37.049686 19.531882 39.614056 20.67827 C 42.178426 21.824659 44.433029 23.42419 46.355135 25.478011 C 48.286562 27.535919 49.819099 29.996788 50.939339 32.865853 C 52.082306 35.733769 52.646991 38.881556 52.650886 42.294659 C 52.646608 45.726403 52.076699 48.876851 50.941158 51.746001 C 49.823109 54.600596 48.292779 57.052215 46.355402 59.114264 C 44.435518 61.161758 42.183792 62.774867 39.612484 63.925629 C 37.041176 65.076391 34.312957 65.647212 31.423739 65.647413 C 28.479745 65.645826 25.762271 65.076819 23.266084 63.926984 C 20.783303 62.771915 18.619612 61.167789 16.779095 59.105286 C 14.934493 57.052104 13.488781 54.595961 12.437872 51.746178 C 11.385815 48.873667 10.866586 45.723582 10.857457 42.297073 Z M 10.857457 42.297073 " stroke="#000000" stroke-width="2.202843" stroke-opacity="1" stroke-miterlimit="4"/><path stroke-linecap="butt" transform="matrix(-0.379462, 0.057729, -0.057729, -0.379462, 224.747596, 344.441989)" fill="none" stroke-linejoin="miter" d="M 13.804188 16.606132 L 8.821238 16.609827 L 8.816691 67.997722 L 12.047887 68.00547 L 12.044275 26.076692 L 12.333646 26.069244 L 35.025875 68.876181 L 36.352869 68.882472 L 59.547661 26.375574 L 59.835501 26.378188 L 59.834726 67.997473 L 66.51606 67.994805 L 66.520607 16.606909 L 61.445576 16.606889 L 37.656138 60.721862 L 37.37836 60.72078 Z M 13.804188 16.606132 " stroke="#000000" stroke-width="2.202843" stroke-opacity="1" stroke-miterlimit="4"/><path stroke-linecap="butt" transform="matrix(-0.380739, -0.0486005, 0.0486005, -0.380739, 180.259533, 348.98157)" fill="none" stroke-linejoin="miter" d="M 13.799763 16.606183 L 8.813613 16.606555 L 8.817532 67.99672 L 12.049058 67.99461 L 12.043311 26.074349 L 12.331131 26.078648 L 35.020477 68.878952 L 36.353468 68.872954 L 59.543829 26.382262 L 59.83036 26.376466 L 59.829021 68.0001 L 66.518031 67.997814 L 66.514113 16.607649 L 61.445913 16.608235 L 37.662711 60.723812 L 37.374891 60.719513 Z M 13.799763 16.606183 " stroke="#000000" stroke-width="2.202843" stroke-opacity="1" stroke-miterlimit="4"/><path stroke-linecap="butt" transform="matrix(-0.357164, -0.140562, 0.140562, -0.357164, 136.84082, 340.99073)" fill="none" stroke-linejoin="miter" d="M 5.88413 16.611908 L 5.882083 48.176461 C 5.882269 50.177831 6.068313 52.401352 6.451702 54.820629 C 6.848288 57.245649 7.780638 59.503567 9.245025 61.584913 C 10.718881 63.662532 12.890105 65.400081 15.771891 66.803304 C 18.665165 68.180133 22.605404 68.882445 27.600368 68.874375 C 30.729965 68.878588 33.510817 68.385712 35.93718 67.408944 C 38.363544 66.432176 40.393201 65.086563 42.039349 63.377848 C 43.6723 61.663389 44.904207 59.680225 45.727616 57.409413 C 46.566238 55.121678 46.984264 52.682299 46.981696 50.091277 L 46.984962 16.612295 L 43.758953 16.613215 L 43.757945 47.65239 C 43.751836 48.748479 43.732531 49.838825 43.681088 50.930882 C 43.633372 52.032408 43.485517 53.129597 43.23178 54.235645 C 42.996983 55.33424 42.616714 56.424464 42.109911 57.498864 C 41.589911 58.56752 40.844951 59.648152 39.867575 60.72182 C 38.10687 62.639672 36.122852 63.934513 33.913506 64.62901 C 31.709904 65.31031 29.417465 65.654719 27.009796 65.65075 C 24.953621 65.65063 23.135421 65.338118 21.551468 64.703744 C 19.950591 64.054157 18.449669 63.102749 17.031778 61.834305 C 15.903306 60.856624 15.04513 59.871 14.464703 58.896374 C 13.880549 57.912277 13.436125 56.949748 13.137174 55.995588 C 12.857163 55.033975 12.677291 54.0767 12.622241 53.103111 C 12.576662 52.125796 12.550022 51.141027 12.549777 50.167744 L 12.545895 16.615017 Z M 5.88413 16.611908 " stroke="#000000" stroke-width="2.202843" stroke-opacity="1" stroke-miterlimit="4"/><path stroke-linecap="butt" transform="matrix(-0.315553, -0.218518, 0.218518, -0.315553, 104.595319, 326.666023)" fill="none" stroke-linejoin="miter" d="M 50.2283 16.608957 L 50.224867 55.877745 L 49.9172 55.880358 L 9.179696 15.733594 L 8.821179 15.734283 L 8.818736 68.000409 L 12.183767 67.997411 L 12.1872 28.728624 L 12.47234 28.729232 L 53.238166 68.881141 L 53.596682 68.880452 L 53.593331 16.60596 Z M 50.2283 16.608957 " stroke="#000000" stroke-width="2.202843" stroke-opacity="1" stroke-miterlimit="4"/><path stroke-linecap="butt" transform="matrix(-0.265718, -0.27698, 0.27698, -0.265718, 74.270572, 303.15083)" fill="none" stroke-linejoin="miter" d="M 11.745188 16.608881 L 11.739111 67.994372 L 18.433205 67.999407 L 18.424892 16.614214 Z M 11.745188 16.608881 " stroke="#000000" stroke-width="2.202843" stroke-opacity="1" stroke-miterlimit="4"/><path stroke-linecap="butt" transform="matrix(-0.211018, -0.320617, 0.320617, -0.211018, 57.151395, 283.912277)" fill="none" stroke-linejoin="miter" d="M 27.81894 67.996753 L 27.821249 20.640873 L 47.49805 20.640278 L 47.496785 16.606696 L 1.464774 16.610674 L 1.466038 20.644256 L 21.156934 20.640754 L 21.154626 67.996633 Z M 27.81894 67.996753 " stroke="#000000" stroke-width="2.202843" stroke-opacity="1" stroke-miterlimit="4"/><path stroke-linecap="butt" transform="matrix(-0.141373, -0.356844, 0.356844, -0.141373, 40.128298, 255.265032)" fill="none" stroke-linejoin="miter" d="M 2.209097 16.607264 L 19.965676 48.545689 L 19.965614 67.997897 L 26.653789 67.998504 L 26.651681 47.888636 L 44.704224 16.60688 L 40.739341 16.612404 L 25.040913 43.692819 L 24.734755 43.691939 L 9.770404 16.614439 Z M 2.209097 16.607264 " stroke="#000000" stroke-width="2.202843" stroke-opacity="1" stroke-miterlimit="4"/><g fill="#000000" fill-opacity="1"><g transform="translate(51.415952, 195.046003)"><g><path d="M -5.5 -14.46875 L 0.375 -17.046875 L 0.4375 -19.78125 L -19.5 -11.03125 L -19.53125 -9.625 L 0.015625 -0.84375 L 0.046875 -2.140625 L -5.71875 -4.75 Z M -6.78125 -13.90625 L -6.96875 -5.3125 L -16.375 -9.578125 L -16.375 -9.6875 Z M -6.78125 -13.90625 "/></g></g></g><g fill="#000000" fill-opacity="1"><g transform="translate(53.025806, 165.410926)"><g><path d="M 0.890625 -3.5625 L -18.25 -8.359375 L -16.671875 -14.640625 C -16.296875 -16.148438 -15.707031 -17.472656 -14.90625 -18.609375 C -14.101562 -19.753906 -13.164062 -20.671875 -12.09375 -21.359375 C -11.019531 -22.046875 -9.835938 -22.492188 -8.546875 -22.703125 C -7.265625 -22.910156 -5.945312 -22.84375 -4.59375 -22.5 C -3.1875 -22.15625 -1.957031 -21.570312 -0.90625 -20.75 C 0.132812 -19.9375 0.96875 -18.972656 1.59375 -17.859375 C 2.226562 -16.753906 2.628906 -15.535156 2.796875 -14.203125 C 2.972656 -12.878906 2.890625 -11.535156 2.546875 -10.171875 Z M 0.3125 -6.34375 L 1.0625 -9.34375 C 1.4375 -10.84375 1.503906 -12.175781 1.265625 -13.34375 C 1.023438 -14.519531 0.59375 -15.546875 -0.03125 -16.421875 C -0.664062 -17.296875 -1.441406 -18.015625 -2.359375 -18.578125 C -3.273438 -19.140625 -4.222656 -19.539062 -5.203125 -19.78125 C -6.304688 -20.0625 -7.410156 -20.144531 -8.515625 -20.03125 C -9.617188 -19.914062 -10.644531 -19.601562 -11.59375 -19.09375 C -12.539062 -18.59375 -13.367188 -17.878906 -14.078125 -16.953125 C -14.796875 -16.023438 -15.328125 -14.882812 -15.671875 -13.53125 L -16.421875 -10.53125 Z M 0.3125 -6.34375 "/></g></g></g><g fill="#000000" fill-opacity="1"><g transform="translate(61.895224, 135.823856)"><g/></g></g><g fill="#000000" fill-opacity="1"><g transform="translate(70.302604, 118.454097)"><g><path d="M 3.515625 -15.0625 L 9.828125 -13.921875 L 11.40625 -16.15625 L -10.015625 -20.03125 L -10.828125 -18.875 L 0.484375 -0.6875 L 1.234375 -1.75 L -2.078125 -7.125 Z M 2.140625 -15.3125 L -2.8125 -8.296875 L -8.234375 -17.09375 L -8.171875 -17.1875 Z M 2.140625 -15.3125 "/></g></g></g><g fill="#000000" fill-opacity="1"><g transform="translate(88.118536, 94.765729)"><g><path d="M 10.09375 -20.75 L 5.921875 -17.03125 L 6.6875 -16.171875 L 9.046875 -18.28125 L 12.4375 -14.46875 C 12.164062 -13.5 11.785156 -12.625 11.296875 -11.84375 C 10.816406 -11.0625 10.15625 -10.296875 9.3125 -9.546875 C 8.195312 -8.566406 7.078125 -7.875 5.953125 -7.46875 C 4.828125 -7.0625 3.722656 -6.910156 2.640625 -7.015625 C 1.566406 -7.117188 0.53125 -7.460938 -0.46875 -8.046875 C -1.476562 -8.640625 -2.421875 -9.425781 -3.296875 -10.40625 C -4.148438 -11.363281 -4.8125 -12.363281 -5.28125 -13.40625 C -5.75 -14.457031 -5.984375 -15.507812 -5.984375 -16.5625 C -5.992188 -17.613281 -5.765625 -18.632812 -5.296875 -19.625 C -4.835938 -20.613281 -4.109375 -21.550781 -3.109375 -22.4375 C -2.453125 -23.03125 -1.769531 -23.507812 -1.0625 -23.875 C -0.363281 -24.25 0.304688 -24.523438 0.953125 -24.703125 C 1.609375 -24.878906 2.207031 -24.945312 2.75 -24.90625 C 3.289062 -24.875 3.734375 -24.75 4.078125 -24.53125 L 5.59375 -25.875 C 5.1875 -26.082031 4.660156 -26.242188 4.015625 -26.359375 C 3.367188 -26.472656 2.632812 -26.46875 1.8125 -26.34375 C 1 -26.21875 0.109375 -25.925781 -0.859375 -25.46875 C -1.828125 -25.019531 -2.832031 -24.335938 -3.875 -23.421875 C -5.070312 -22.359375 -6.019531 -21.210938 -6.71875 -19.984375 C -7.425781 -18.753906 -7.859375 -17.5 -8.015625 -16.21875 C -8.179688 -14.9375 -8.054688 -13.65625 -7.640625 -12.375 C -7.234375 -11.09375 -6.515625 -9.867188 -5.484375 -8.703125 C -4.585938 -7.703125 -3.566406 -6.875 -2.421875 -6.21875 C -1.285156 -5.570312 -0.0625 -5.171875 1.25 -5.015625 C 2.5625 -4.859375 3.921875 -5.007812 5.328125 -5.46875 C 6.734375 -5.925781 8.132812 -6.78125 9.53125 -8.03125 C 10.59375 -8.96875 11.425781 -9.910156 12.03125 -10.859375 C 12.632812 -11.816406 13.078125 -12.675781 13.359375 -13.4375 L 14.125 -12.578125 L 15.9375 -14.1875 Z M 10.09375 -20.75 "/></g></g></g><g fill="#000000" fill-opacity="1"><g transform="translate(112.948151, 74.408537)"><g><path d="M -6.71875 -18.859375 L 2.9375 -1.65625 L 14.0625 -7.890625 L 13.3125 -9.234375 L 4.4375 -4.265625 L 0.390625 -11.484375 L 8.015625 -15.75 L 7.375 -16.875 L -0.25 -12.609375 L -3.71875 -18.78125 L 5.15625 -23.75 L 4.40625 -25.09375 Z M -6.71875 -18.859375 "/></g></g></g><g fill="#000000" fill-opacity="1"><g transform="translate(135.985665, 62.181541)"><g><path d="M 12.78125 -24.453125 L 17.125 -10.015625 L 17.015625 -9.984375 L -2.40625 -20.21875 L -2.546875 -20.171875 L 3.234375 -0.96875 L 4.46875 -1.34375 L 0.125 -15.78125 L 0.25 -15.8125 L 19.65625 -5.5625 L 19.796875 -5.609375 L 14.015625 -24.828125 Z M 12.78125 -24.453125 "/></g></g></g><g fill="#000000" fill-opacity="1"><g transform="translate(167.810531, 53.854321)"><g><path d="M 19.75 -4.796875 C 17.9375 -2.878906 15.71875 -1.847656 13.09375 -1.703125 C 11.632812 -1.617188 10.320312 -1.796875 9.15625 -2.234375 C 8 -2.671875 7.019531 -3.285156 6.21875 -4.078125 C 5.425781 -4.878906 4.804688 -5.820312 4.359375 -6.90625 C 3.910156 -7.988281 3.65625 -9.132812 3.59375 -10.34375 C 3.507812 -11.613281 3.640625 -12.789062 3.984375 -13.875 C 4.328125 -14.957031 4.835938 -15.90625 5.515625 -16.71875 C 6.203125 -17.53125 7.035156 -18.179688 8.015625 -18.671875 C 8.992188 -19.160156 10.078125 -19.441406 11.265625 -19.515625 C 12.078125 -19.554688 12.816406 -19.503906 13.484375 -19.359375 C 14.160156 -19.210938 14.765625 -19 15.296875 -18.71875 C 15.835938 -18.445312 16.28125 -18.128906 16.625 -17.765625 C 16.976562 -17.398438 17.234375 -17.023438 17.390625 -16.640625 L 19.46875 -16.765625 C 19.15625 -17.390625 18.757812 -17.957031 18.28125 -18.46875 C 17.8125 -18.988281 17.234375 -19.425781 16.546875 -19.78125 C 15.867188 -20.144531 15.082031 -20.410156 14.1875 -20.578125 C 13.289062 -20.753906 12.285156 -20.8125 11.171875 -20.75 C 9.535156 -20.65625 8.054688 -20.332031 6.734375 -19.78125 C 5.421875 -19.238281 4.3125 -18.5 3.40625 -17.5625 C 2.507812 -16.632812 1.832031 -15.539062 1.375 -14.28125 C 0.914062 -13.03125 0.734375 -11.644531 0.828125 -10.125 C 0.898438 -8.8125 1.179688 -7.546875 1.671875 -6.328125 C 2.171875 -5.109375 2.890625 -4.039062 3.828125 -3.125 C 4.765625 -2.207031 5.929688 -1.488281 7.328125 -0.96875 C 8.734375 -0.457031 10.390625 -0.257812 12.296875 -0.375 C 13.484375 -0.4375 14.546875 -0.609375 15.484375 -0.890625 C 16.421875 -1.179688 17.234375 -1.507812 17.921875 -1.875 C 18.609375 -2.25 19.175781 -2.632812 19.625 -3.03125 C 20.070312 -3.4375 20.40625 -3.785156 20.625 -4.078125 Z M 19.75 -4.796875 "/></g></g></g><g fill="#000000" fill-opacity="1"><g transform="translate(198.305448, 53.248996)"><g><path d="M 3.890625 -19.375 L 8.734375 -6.1875 L 7.578125 1.1875 L 10.109375 1.59375 L 11.3125 -6.03125 L 20.03125 -16.828125 L 18.515625 -17.0625 L 10.953125 -7.71875 L 10.84375 -7.75 L 6.765625 -18.921875 Z M 3.890625 -19.375 "/></g></g></g><g fill="#000000" fill-opacity="1"><g transform="translate(225.228617, 58.674126)"><g/></g></g><g fill="#000000" fill-opacity="1"><g transform="translate(243.352473, 65.23658)"><g><path d="M 19.1875 6.671875 C 16.632812 7.304688 14.210938 6.972656 11.921875 5.671875 C 10.648438 4.953125 9.644531 4.09375 8.90625 3.09375 C 8.164062 2.09375 7.675781 1.039062 7.4375 -0.0625 C 7.207031 -1.164062 7.195312 -2.289062 7.40625 -3.4375 C 7.613281 -4.59375 8.015625 -5.695312 8.609375 -6.75 C 9.242188 -7.851562 10 -8.765625 10.875 -9.484375 C 11.75 -10.210938 12.691406 -10.734375 13.703125 -11.046875 C 14.722656 -11.359375 15.773438 -11.453125 16.859375 -11.328125 C 17.953125 -11.210938 19.015625 -10.863281 20.046875 -10.28125 C 20.753906 -9.875 21.347656 -9.425781 21.828125 -8.9375 C 22.316406 -8.445312 22.710938 -7.941406 23.015625 -7.421875 C 23.316406 -6.910156 23.515625 -6.40625 23.609375 -5.90625 C 23.703125 -5.40625 23.710938 -4.953125 23.640625 -4.546875 L 25.4375 -3.515625 C 25.519531 -4.222656 25.5 -4.921875 25.375 -5.609375 C 25.257812 -6.296875 25.015625 -6.972656 24.640625 -7.640625 C 24.265625 -8.316406 23.742188 -8.96875 23.078125 -9.59375 C 22.421875 -10.21875 21.601562 -10.8125 20.625 -11.375 C 19.207031 -12.175781 17.796875 -12.703125 16.390625 -12.953125 C 14.992188 -13.210938 13.660156 -13.195312 12.390625 -12.90625 C 11.128906 -12.625 9.960938 -12.078125 8.890625 -11.265625 C 7.828125 -10.453125 6.921875 -9.382812 6.171875 -8.0625 C 5.523438 -6.925781 5.078125 -5.707031 4.828125 -4.40625 C 4.585938 -3.113281 4.613281 -1.828125 4.90625 -0.546875 C 5.195312 0.734375 5.789062 1.96875 6.6875 3.15625 C 7.59375 4.351562 8.875 5.421875 10.53125 6.359375 C 11.570312 6.953125 12.5625 7.378906 13.5 7.640625 C 14.4375 7.910156 15.289062 8.078125 16.0625 8.140625 C 16.84375 8.203125 17.53125 8.1875 18.125 8.09375 C 18.71875 8 19.191406 7.890625 19.546875 7.765625 Z M 19.1875 6.671875 "/></g></g></g><g fill="#000000" fill-opacity="1"><g transform="translate(269.297778, 81.166887)"><g><path d="M 15.765625 -12.34375 L 2.5 2.265625 L 4.40625 4 L 10.25 -2.4375 L 11.171875 -1.609375 C 11.554688 -1.253906 11.84375 -0.925781 12.03125 -0.625 C 12.226562 -0.320312 12.351562 0.00390625 12.40625 0.359375 C 12.46875 0.710938 12.472656 1.101562 12.421875 1.53125 C 12.367188 1.957031 12.285156 2.484375 12.171875 3.109375 L 11.625 7.03125 C 11.53125 7.539062 11.46875 8.019531 11.4375 8.46875 C 11.40625 8.925781 11.421875 9.351562 11.484375 9.75 C 11.546875 10.15625 11.675781 10.550781 11.875 10.9375 C 12.070312 11.320312 12.378906 11.703125 12.796875 12.078125 C 13.097656 12.347656 13.359375 12.554688 13.578125 12.703125 C 13.804688 12.847656 14.066406 12.957031 14.359375 13.03125 L 15.0625 12.25 C 14.976562 12.207031 14.894531 12.15625 14.8125 12.09375 C 14.738281 12.039062 14.664062 11.984375 14.59375 11.921875 C 14.300781 11.648438 14.082031 11.367188 13.9375 11.078125 C 13.789062 10.796875 13.691406 10.488281 13.640625 10.15625 C 13.597656 9.832031 13.585938 9.46875 13.609375 9.0625 C 13.640625 8.664062 13.695312 8.234375 13.78125 7.765625 C 13.957031 6.390625 14.113281 5.304688 14.25 4.515625 C 14.394531 3.722656 14.5 3.097656 14.5625 2.640625 C 14.632812 2.191406 14.664062 1.847656 14.65625 1.609375 C 14.65625 1.378906 14.609375 1.148438 14.515625 0.921875 L 14.40625 0.625 L 14.46875 0.546875 C 15.175781 1.109375 15.878906 1.476562 16.578125 1.65625 C 17.285156 1.84375 17.960938 1.882812 18.609375 1.78125 C 19.265625 1.6875 19.859375 1.484375 20.390625 1.171875 C 20.929688 0.859375 21.390625 0.492188 21.765625 0.078125 C 22.097656 -0.285156 22.394531 -0.753906 22.65625 -1.328125 C 22.925781 -1.910156 23.054688 -2.554688 23.046875 -3.265625 C 23.046875 -3.972656 22.851562 -4.734375 22.46875 -5.546875 C 22.09375 -6.359375 21.441406 -7.1875 20.515625 -8.03125 Z M 16.828125 -9.6875 L 18.9375 -7.78125 C 19.457031 -7.300781 19.863281 -6.789062 20.15625 -6.25 C 20.445312 -5.71875 20.617188 -5.171875 20.671875 -4.609375 C 20.734375 -4.054688 20.671875 -3.523438 20.484375 -3.015625 C 20.304688 -2.503906 20.015625 -2.023438 19.609375 -1.578125 C 19.273438 -1.203125 18.859375 -0.882812 18.359375 -0.625 C 17.867188 -0.375 17.335938 -0.222656 16.765625 -0.171875 C 16.191406 -0.128906 15.601562 -0.203125 15 -0.390625 C 14.394531 -0.585938 13.8125 -0.941406 13.25 -1.453125 L 11.109375 -3.390625 Z M 16.828125 -9.6875 "/></g></g></g><g fill="#000000" fill-opacity="1"><g transform="translate(290.310701, 101.749918)"><g><path d="M 17.953125 -8.84375 L 1.984375 2.734375 L 9.46875 13.046875 L 10.71875 12.140625 L 4.75 3.90625 L 11.4375 -0.953125 L 16.5625 6.125 L 17.625 5.375 L 12.5 -1.703125 L 18.21875 -5.859375 L 24.1875 2.375 L 25.4375 1.46875 Z M 17.953125 -8.84375 "/></g></g></g><g fill="#000000" fill-opacity="1"><g transform="translate(305.04344, 123.368457)"><g><path d="M 11.15625 10.71875 L 6.953125 15.5625 L 8.0625 18.0625 L 22.328125 1.625 L 21.765625 0.34375 L 0.34375 0.765625 L 0.875 1.953125 L 7.203125 1.84375 Z M 12.078125 9.671875 L 8.578125 1.8125 L 18.890625 1.671875 L 18.9375 1.765625 Z M 12.078125 9.671875 "/></g></g></g><g fill="#000000" fill-opacity="1"><g transform="translate(316.178126, 150.953486)"><g><path d="M 2.1875 10.46875 L 19.984375 6.75 L 21.53125 14.125 L 23.046875 13.8125 L 19.421875 -3.484375 L 17.90625 -3.171875 L 19.453125 4.234375 L 1.65625 7.953125 Z M 2.1875 10.46875 "/></g></g></g><g fill="#000000" fill-opacity="1"><g transform="translate(320.770308, 178.752393)"><g><path d="M 19.84375 4.0625 L 0.109375 4.515625 L 0.171875 7.078125 L 19.90625 6.625 Z M 19.84375 4.0625 "/></g></g></g><g fill="#000000" fill-opacity="1"><g transform="translate(320.760019, 199.734638)"><g><path d="M 19.328125 4.015625 L -1.46875 8.984375 L -1.75 10.65625 L 16.4375 21.734375 L 16.671875 20.28125 L 1.71875 11.1875 L 1.734375 11.078125 L 18.84375 7.03125 Z M 19.328125 4.015625 "/></g></g></g><g fill="#000000" fill-opacity="1"><g transform="translate(315.04194, 228.004807)"><g><path d="M 17.21875 10.21875 L -1.203125 3.15625 L -5.78125 15.046875 L -4.34375 15.59375 L -0.6875 6.109375 L 7.03125 9.078125 L 3.890625 17.234375 L 5.109375 17.703125 L 8.25 9.546875 L 14.859375 12.078125 L 11.203125 21.5625 L 12.640625 22.109375 Z M 17.21875 10.21875 "/></g></g></g><g fill="#000000" fill-opacity="1"><g transform="translate(304.821701, 252.171648)"><g><path d="M 3.65625 3.546875 C 2.96875 3.140625 2.238281 2.921875 1.46875 2.890625 C 0.695312 2.867188 -0.0546875 3.015625 -0.796875 3.328125 C -1.535156 3.648438 -2.253906 4.125 -2.953125 4.75 C -3.660156 5.382812 -4.300781 6.148438 -4.875 7.046875 C -5.457031 7.972656 -5.867188 8.875 -6.109375 9.75 C -6.347656 10.632812 -6.425781 11.472656 -6.34375 12.265625 C -6.257812 13.054688 -6.015625 13.78125 -5.609375 14.4375 C -5.210938 15.09375 -4.65625 15.644531 -3.9375 16.09375 C -2.945312 16.71875 -1.984375 16.976562 -1.046875 16.875 C -0.109375 16.78125 0.800781 16.492188 1.6875 16.015625 C 2.582031 15.546875 3.441406 14.96875 4.265625 14.28125 C 5.097656 13.601562 5.90625 12.992188 6.6875 12.453125 C 7.476562 11.910156 8.234375 11.519531 8.953125 11.28125 C 9.679688 11.050781 10.390625 11.15625 11.078125 11.59375 C 11.453125 11.832031 11.753906 12.144531 11.984375 12.53125 C 12.222656 12.914062 12.359375 13.347656 12.390625 13.828125 C 12.429688 14.304688 12.375 14.828125 12.21875 15.390625 C 12.070312 15.960938 11.804688 16.5625 11.421875 17.1875 C 10.765625 18.21875 9.988281 18.957031 9.09375 19.40625 C 8.195312 19.851562 7.242188 19.84375 6.234375 19.375 L 5.203125 21 C 5.847656 21.269531 6.515625 21.382812 7.203125 21.34375 C 7.890625 21.3125 8.550781 21.144531 9.1875 20.84375 C 9.832031 20.539062 10.4375 20.117188 11 19.578125 C 11.570312 19.046875 12.082031 18.425781 12.53125 17.71875 C 12.988281 16.988281 13.332031 16.234375 13.5625 15.453125 C 13.789062 14.679688 13.878906 13.929688 13.828125 13.203125 C 13.785156 12.472656 13.578125 11.78125 13.203125 11.125 C 12.828125 10.476562 12.285156 9.929688 11.578125 9.484375 C 10.628906 8.890625 9.71875 8.648438 8.84375 8.765625 C 7.976562 8.878906 7.128906 9.175781 6.296875 9.65625 C 5.460938 10.144531 4.640625 10.722656 3.828125 11.390625 C 3.023438 12.054688 2.222656 12.644531 1.421875 13.15625 C 0.628906 13.664062 -0.160156 14 -0.953125 14.15625 C -1.742188 14.320312 -2.554688 14.144531 -3.390625 13.625 C -4.421875 12.976562 -4.929688 12.128906 -4.921875 11.078125 C -4.921875 10.023438 -4.523438 8.867188 -3.734375 7.609375 C -3.109375 6.609375 -2.472656 5.890625 -1.828125 5.453125 C -1.179688 5.015625 -0.570312 4.75 0 4.65625 C 0.5625 4.570312 1.070312 4.59375 1.53125 4.71875 C 1.988281 4.851562 2.359375 5 2.640625 5.15625 Z M 3.65625 3.546875 "/></g></g></g><g fill="#000000" fill-opacity="1"><g transform="translate(289.393713, 274.430538)"><g/></g></g><g fill="#000000" fill-opacity="1"><g transform="translate(276.202883, 288.485342)"><g><path d="M -13.71875 14.984375 C -13.28125 12.390625 -12.015625 10.296875 -9.921875 8.703125 C -8.753906 7.816406 -7.566406 7.234375 -6.359375 6.953125 C -5.148438 6.671875 -3.992188 6.640625 -2.890625 6.859375 C -1.785156 7.078125 -0.742188 7.507812 0.234375 8.15625 C 1.210938 8.8125 2.066406 9.617188 2.796875 10.578125 C 3.554688 11.585938 4.097656 12.640625 4.421875 13.734375 C 4.742188 14.835938 4.847656 15.914062 4.734375 16.96875 C 4.617188 18.019531 4.289062 19.019531 3.75 19.96875 C 3.207031 20.925781 2.460938 21.765625 1.515625 22.484375 C 0.867188 22.972656 0.226562 23.34375 -0.40625 23.59375 C -1.050781 23.84375 -1.671875 24.003906 -2.265625 24.078125 C -2.859375 24.148438 -3.398438 24.128906 -3.890625 24.015625 C -4.390625 23.910156 -4.8125 23.742188 -5.15625 23.515625 L -6.8125 24.78125 C -6.207031 25.113281 -5.5625 25.363281 -4.875 25.53125 C -4.195312 25.695312 -3.476562 25.738281 -2.71875 25.65625 C -1.957031 25.582031 -1.15625 25.363281 -0.3125 25 C 0.53125 24.644531 1.398438 24.128906 2.296875 23.453125 C 3.597656 22.460938 4.640625 21.375 5.421875 20.1875 C 6.210938 19 6.722656 17.765625 6.953125 16.484375 C 7.191406 15.203125 7.148438 13.910156 6.828125 12.609375 C 6.503906 11.316406 5.878906 10.066406 4.953125 8.859375 C 4.160156 7.816406 3.21875 6.921875 2.125 6.171875 C 1.039062 5.429688 -0.144531 4.941406 -1.4375 4.703125 C -2.726562 4.472656 -4.097656 4.535156 -5.546875 4.890625 C -6.992188 5.242188 -8.476562 6 -10 7.15625 C -10.957031 7.875 -11.742188 8.613281 -12.359375 9.375 C -12.972656 10.132812 -13.460938 10.859375 -13.828125 11.546875 C -14.203125 12.242188 -14.460938 12.878906 -14.609375 13.453125 C -14.753906 14.035156 -14.835938 14.515625 -14.859375 14.890625 Z M -13.71875 14.984375 "/></g></g></g><g fill="#000000" fill-opacity="1"><g transform="translate(251.504256, 306.119509)"><g><path d="M 2.671875 9.59375 C 2.253906 8.625 1.617188 7.675781 0.765625 6.75 C -0.0859375 5.820312 -1.113281 5.066406 -2.3125 4.484375 C -3.507812 3.898438 -4.851562 3.570312 -6.34375 3.5 C -7.832031 3.425781 -9.429688 3.765625 -11.140625 4.515625 C -12.285156 5.015625 -13.265625 5.613281 -14.078125 6.3125 C -14.898438 7.007812 -15.578125 7.757812 -16.109375 8.5625 C -16.640625 9.375 -17.039062 10.210938 -17.3125 11.078125 C -17.59375 11.953125 -17.753906 12.816406 -17.796875 13.671875 C -17.847656 14.523438 -17.804688 15.34375 -17.671875 16.125 C -17.546875 16.90625 -17.347656 17.613281 -17.078125 18.25 C -16.648438 19.207031 -16 20.148438 -15.125 21.078125 C -14.25 22.003906 -13.195312 22.75 -11.96875 23.3125 C -10.738281 23.875 -9.351562 24.179688 -7.8125 24.234375 C -6.28125 24.296875 -4.65625 23.953125 -2.9375 23.203125 C -1.226562 22.453125 0.0976562 21.507812 1.046875 20.375 C 2.003906 19.238281 2.675781 18.035156 3.0625 16.765625 C 3.445312 15.492188 3.585938 14.222656 3.484375 12.953125 C 3.378906 11.691406 3.109375 10.570312 2.671875 9.59375 Z M 0.125 10.703125 C 0.65625 11.910156 0.957031 13.097656 1.03125 14.265625 C 1.101562 15.441406 0.972656 16.53125 0.640625 17.53125 C 0.316406 18.539062 -0.191406 19.441406 -0.890625 20.234375 C -1.585938 21.023438 -2.453125 21.644531 -3.484375 22.09375 C -4.503906 22.539062 -5.550781 22.757812 -6.625 22.75 C -7.707031 22.738281 -8.742188 22.519531 -9.734375 22.09375 C -10.734375 21.664062 -11.648438 21.035156 -12.484375 20.203125 C -13.328125 19.367188 -14.015625 18.347656 -14.546875 17.140625 C -15.066406 15.941406 -15.347656 14.75 -15.390625 13.5625 C -15.441406 12.382812 -15.285156 11.285156 -14.921875 10.265625 C -14.566406 9.253906 -14.023438 8.347656 -13.296875 7.546875 C -12.578125 6.742188 -11.707031 6.117188 -10.6875 5.671875 C -9.65625 5.222656 -8.613281 5.007812 -7.5625 5.03125 C -6.507812 5.050781 -5.5 5.28125 -4.53125 5.71875 C -3.570312 6.15625 -2.6875 6.796875 -1.875 7.640625 C -1.0625 8.484375 -0.394531 9.503906 0.125 10.703125 Z M 0.125 10.703125 "/></g></g></g><g fill="#000000" fill-opacity="1"><g transform="translate(220.822027, 318.638595)"><g><path d="M -2.265625 20.3125 L -0.375 20.015625 L -3.34375 0.5 L -4.578125 0.703125 L -2.15625 16.609375 L -2.265625 16.625 L -13.34375 1.671875 L -13.84375 1.75 L -20.1875 19.234375 L -20.296875 19.25 L -22.703125 3.453125 L -25.234375 3.84375 L -22.265625 23.359375 L -20.359375 23.0625 L -13.859375 4.9375 L -13.765625 4.921875 Z M -2.265625 20.3125 "/></g></g></g><g fill="#000000" fill-opacity="1"><g transform="translate(183.564365, 323.09135)"><g><path d="M -7.75 18.90625 L -5.84375 19.15625 L -3.34375 -0.421875 L -4.59375 -0.578125 L -6.625 15.390625 L -6.734375 15.375 L -13.296875 -2.046875 L -13.796875 -2.109375 L -24.703125 12.96875 L -24.8125 12.953125 L -22.78125 -2.90625 L -25.328125 -3.234375 L -27.828125 16.34375 L -25.90625 16.59375 L -14.703125 0.953125 L -14.59375 0.96875 Z M -7.75 18.90625 "/></g></g></g><g fill="#000000" fill-opacity="1"><g transform="translate(146.399019, 316.703571)"><g><path d="M -9.328125 17.53125 L -4.875 6.25 C -4.59375 5.53125 -4.351562 4.710938 -4.15625 3.796875 C -3.957031 2.890625 -3.972656 1.957031 -4.203125 1 C -4.429688 0.0390625 -4.960938 -0.882812 -5.796875 -1.78125 C -6.640625 -2.6875 -7.953125 -3.488281 -9.734375 -4.1875 C -10.859375 -4.632812 -11.921875 -4.851562 -12.921875 -4.84375 C -13.921875 -4.832031 -14.832031 -4.632812 -15.65625 -4.25 C -16.488281 -3.863281 -17.210938 -3.320312 -17.828125 -2.625 C -18.453125 -1.9375 -18.945312 -1.132812 -19.3125 -0.21875 L -24.03125 11.75 L -22.859375 12.203125 L -18.484375 1.109375 C -18.328125 0.722656 -18.164062 0.335938 -18 -0.046875 C -17.84375 -0.429688 -17.640625 -0.800781 -17.390625 -1.15625 C -17.148438 -1.519531 -16.859375 -1.859375 -16.515625 -2.171875 C -16.179688 -2.484375 -15.769531 -2.757812 -15.28125 -3 C -14.375 -3.445312 -13.476562 -3.632812 -12.59375 -3.5625 C -11.707031 -3.488281 -10.835938 -3.285156 -9.984375 -2.953125 C -9.242188 -2.660156 -8.632812 -2.285156 -8.15625 -1.828125 C -7.675781 -1.378906 -7.28125 -0.832031 -6.96875 -0.1875 C -6.695312 0.320312 -6.523438 0.789062 -6.453125 1.21875 C -6.378906 1.65625 -6.351562 2.0625 -6.375 2.4375 C -6.40625 2.820312 -6.476562 3.191406 -6.59375 3.546875 C -6.71875 3.898438 -6.847656 4.253906 -6.984375 4.609375 L -11.71875 16.59375 Z M -9.328125 17.53125 "/></g></g></g><g fill="#000000" fill-opacity="1"><g transform="translate(119.454562, 305.208434)"><g><path d="M -27.078125 5.234375 L -18.5 -7.15625 L -18.421875 -7.09375 L -14.328125 14.484375 L -14.203125 14.578125 L -2.78125 -1.921875 L -3.84375 -2.65625 L -12.421875 9.734375 L -12.515625 9.65625 L -16.59375 -11.921875 L -16.71875 -12 L -28.15625 4.5 Z M -27.078125 5.234375 "/></g></g></g><g fill="#000000" fill-opacity="1"><g transform="translate(93.105222, 285.082036)"><g><path d="M -17.359375 10.390625 L -3.125 -3.265625 L -4.90625 -5.109375 L -19.140625 8.546875 Z M -17.359375 10.390625 "/></g></g></g><g fill="#000000" fill-opacity="1"><g transform="translate(78.953361, 269.563075)"><g><path d="M -5.875 -8.921875 L -21.0625 1.078125 L -25.21875 -5.234375 L -26.515625 -4.390625 L -16.796875 10.375 L -15.5 9.53125 L -19.65625 3.21875 L -4.46875 -6.78125 Z M -5.875 -8.921875 "/></g></g></g><g fill="#000000" fill-opacity="1"><g transform="translate(64.393667, 245.651649)"><g><path d="M -18.65625 6.484375 L -9.765625 -4.375 L -2.828125 -7.125 L -3.765625 -9.515625 L -10.9375 -6.671875 L -24.671875 -8.703125 L -24.109375 -7.28125 L -12.21875 -5.5 L -12.171875 -5.390625 L -19.71875 3.78125 Z M -18.65625 6.484375 "/></g></g></g><g clip-path="url(#bacba6cfdf)"><g clip-path="url(#ef6ada1e56)"><path fill="#000000" d="M 115.402344 90.515625 L 258.097656 90.515625 L 258.097656 236.480469 L 115.402344 236.480469 Z M 115.402344 90.515625 " fill-opacity="1" fill-rule="nonzero"/></g></g></svg>