<svg width="1364" height="1364" viewBox="0 0 1364 1364" fill="none" xmlns="http://www.w3.org/2000/svg">
<g clip-path="url(#clip0_1000_18812)">
<path d="M668.72 0H695.253C768.547 1.62667 841.653 14.7867 910.693 39.5333C994.373 69.32 1072.08 115.773 1138 175.347C1203.49 234.333 1257.45 306.147 1295.68 385.6C1333.47 463.8 1356.08 549.32 1361.65 636C1361.64 640.52 1361.97 645.053 1364 649.173V714.28C1361.11 719.56 1362.01 725.627 1361.36 731.373C1352.41 860.16 1305.35 985.92 1227.93 1089.23C1164.32 1174.35 1080.72 1244.53 985.52 1291.81C933.587 1317.61 878.44 1337 821.627 1348.69C804.973 1352.85 787.84 1354.51 770.96 1357.45C753.667 1359.89 736.213 1361.07 718.8 1362.08C716.173 1362.47 713.667 1363.41 711.08 1364H647.32C645.213 1363.16 643.227 1361.88 640.907 1361.89C621.56 1360.65 602.173 1359.32 583.053 1356.01C467.293 1339.56 356.2 1292.05 263.92 1220.28C185.747 1159.65 120.907 1081.88 75.64 993.907C42.12 929.04 19.3067 858.76 7.98667 786.667C5.77333 769.347 3.26667 752.053 1.88 734.667C1.77333 726.227 0.733333 717.68 2.49333 709.347C0.52 715.587 0.226667 722.133 0 728.627V634.027C0.426667 640.307 0.0933334 646.76 2.12 652.813C1 643.227 1.66667 633.547 2.17333 623.947C4.92 601.293 6.94667 578.48 11.64 556.107C19.76 511.44 32.72 467.667 49.8133 425.613C88.9467 328.333 151.373 240.707 229.853 171.213C297.653 110.987 377.707 64.5867 463.64 35.6667C529.627 13.3067 599.093 1.45333 668.72 0ZM635.347 57.0267C621.8 57.7333 608.32 59.16 594.92 61.2C579.88 63.84 564.613 65.36 549.8 69.24C434.107 93.5333 326 152.16 242.067 235.387C146.293 329.013 81.9733 454.28 62.4933 586.813C55.7733 626.84 54.8133 667.56 55.72 708.067C56.76 718.293 56.8667 728.587 57.76 738.84C59.0533 756.693 62.28 774.307 64.92 792C78.56 868.28 106.32 942.027 146.827 1008.12C192.293 1082.36 253.427 1146.87 324.84 1196.6C416.747 1260.67 526.347 1299.05 638.107 1306.35C644.867 1307.65 651.8 1307.25 658.653 1307.53C679.12 1307.61 699.6 1307.87 720.053 1307.11C724.88 1306.44 729.72 1305.79 734.627 1305.85C753.013 1303.52 771.627 1302.43 789.8 1298.53C877.467 1283.53 961.747 1249.2 1035.07 1198.87C1122.12 1139.17 1194.03 1057.41 1241.43 963.053C1266.24 913.733 1284.35 861.08 1295.44 807.013C1298.05 791.16 1301.72 775.467 1303.11 759.427C1304.11 747.6 1306.09 735.853 1306.17 723.96C1308.43 707.64 1307.33 691.107 1307.61 674.68C1307.35 663.587 1308.17 652.387 1306.32 641.413C1305.83 635.533 1306.33 629.587 1305.12 623.787C1303.8 610.133 1302.56 596.453 1300.35 582.907C1297.01 565.707 1294.4 548.347 1289.73 531.44C1273.72 465.347 1246.47 402.013 1209.88 344.693C1164.28 273.627 1104.37 211.773 1034.69 164.067C953.947 108.6 859.84 73 762.72 60.4533C744.2 57.48 725.4 57.1333 706.733 55.6667C682.92 55.3467 659.08 55.08 635.347 57.0267Z" fill="white"/>
<path d="M626.453 126.493C636.387 119.093 649.467 118.36 661.387 119.4C670.88 120.48 679.853 126.893 682.72 136.213C679.373 136.347 676.04 136.467 672.707 136.6C664.467 122.56 642.507 123.56 632.32 134.827C618.853 149.293 623.333 175.387 640.533 184.893C648.507 188.653 657.84 188.48 666.267 186.467C672.307 185 677 180.68 681.533 176.68C683.347 177.88 685.187 179.04 687.04 180.187C681.6 188.947 671.24 193.6 661.32 195.08C649.467 196.427 636.067 196.307 626.333 188.413C616.987 182.027 612.92 170.72 611.347 159.973C610.373 147.36 615.64 133.627 626.453 126.493Z" fill="white"/>
<path d="M733.279 121.467C737.639 121.813 741.946 122.533 746.266 123.267C751.493 136.2 755.999 149.427 760.693 162.56C770.119 151.907 778.653 140.493 787.773 129.573C790.546 130.027 793.306 130.573 796.053 131.24C793.626 135.613 790.026 139.12 787.013 143.053C780.039 151.64 773.093 160.24 766.106 168.8C763.933 171.36 762.933 174.6 762.319 177.84C761.159 185.587 759.986 193.32 758.759 201.053C754.799 200.453 750.826 199.947 746.879 199.387C746.986 190.547 750.199 182.133 750.479 173.32C750.999 167.813 747.599 163.107 746.013 158.067C742.146 145.733 736.479 134.013 733.279 121.467Z" fill="white"/>
<path d="M538.933 136.173C541.146 135.493 543.346 134.76 545.519 133.947C549.026 140.24 550.213 147.493 552.293 154.333C557.826 171.827 562.933 189.453 568.293 207C564.453 208.213 561.293 205 558.079 203.44C542.853 195.533 527.773 187.387 512.586 179.427C507.359 177.24 502.933 173.48 497.519 171.747C501.853 188.76 508.266 205.227 511.919 222.4C509.573 223.067 507.199 223.667 504.759 223.773C498.093 200.907 491.066 178.16 484.306 155.32C483.746 153.787 483.493 152.213 483.519 150.6C487.093 150.893 490.053 152.987 493.093 154.68C513.333 165.413 533.653 176.013 553.839 186.84C549.266 169.827 543.573 153.16 538.933 136.173Z" fill="white"/>
<path d="M410.466 186.507C416.293 183.72 421.386 179.453 427.626 177.547C429.026 179.907 430.12 182.44 430.92 185.067C420.386 190.853 410.066 197.027 399.413 202.6C402.266 209.6 407.013 215.6 409.96 222.56C419.466 217.947 428.426 212.267 437.693 207.187C439.266 209.253 440.706 211.467 441.373 214.013C432.493 219.413 423.213 224.093 414.32 229.467C418.546 237.333 422.626 245.347 427.68 252.72C438.24 246.973 448.586 240.853 459.146 235.093C461.04 237.347 462.88 239.747 463.72 242.627C449.2 250.213 435.306 259.053 420.653 266.333C412.12 251.227 403.72 236.053 395.08 221C391.8 214.213 387.186 208.16 384.453 201.107C393.146 196.28 401.813 191.413 410.466 186.507Z" fill="white"/>
<path d="M924.694 190.187C937.014 184.653 950.987 188.96 962.054 195.387C967.494 199.08 972.747 203.467 975.907 209.347C978.894 214.48 979.36 220.613 979.014 226.413C975.36 225.48 972.254 223.253 968.947 221.56C969.334 215.533 967.28 209.347 962.587 205.387C955.48 198.227 944.454 196.267 934.88 198.573C916.334 204.293 906.214 229.227 916.96 245.813C922.294 253.547 930.787 259.08 940.107 260.573C945.507 261.24 950.947 260.173 956.374 260.667C956.587 262.6 956.827 264.547 957.067 266.507C952.827 267.867 948.467 269.08 943.974 268.587C927.667 266.893 911.44 258.027 903.56 243.253C894.574 223.867 904.48 197.8 924.694 190.187Z" fill="white"/>
<path d="M296.306 268.227C303.506 258.467 313.4 249.987 325.533 247.453C331.466 246.72 337.586 247.013 343.026 249.68C341.106 252.507 338.533 254.813 335.786 256.813C333.146 256.96 330.76 255 328.066 255.507C317.053 257.093 307.24 264.48 302.093 274.253C298.92 282.253 299.68 291.96 304.626 299.093C309.52 306.72 316.426 313.733 325.32 316.36C332.493 317.773 340.346 317.347 346.706 313.453C354.493 308.453 361.2 301.2 363.973 292.227C360.106 288.32 356.6 284.067 352.6 280.307C350.213 283.187 347.4 285.693 344.253 287.747C342.666 285.96 340.96 284.187 340.213 281.867C345.893 276.92 351.453 271.813 357.2 266.933C364.746 275.8 372.853 284.2 380.28 293.16C376.853 296 373.92 300.907 368.813 299.693C363.16 310.693 354.013 320.213 342.506 325.053C336.04 328.427 328.466 328.053 321.426 327.373C309.866 324.56 299.693 316.653 293.76 306.373C287.226 294.533 288.506 279.173 296.306 268.227Z" fill="white"/>
<path d="M986.24 302.893C1003.01 284.827 1019.41 266.427 1036.07 248.267C1043.31 254.213 1050.04 260.733 1056.85 267.16C1061.67 272.16 1065.47 279.147 1064.39 286.293C1062.63 293.413 1057.57 300 1050.36 302.16C1045.09 304.52 1039.36 302.773 1034.25 300.92C1032.21 310.653 1030.51 320.56 1030.21 330.52C1029.72 334.693 1033.25 337.307 1035.89 339.88C1034.43 341.307 1032.99 342.747 1031.56 344.2C1025.59 342.773 1021.4 337.627 1019.32 332.107C1018.04 320.333 1022.57 308.96 1022.93 297.253C1022.63 293.2 1018.81 291.093 1016.4 288.28C1009.04 295.907 1002.45 304.253 994.88 311.693C991.88 308.88 988.334 306.52 986.24 302.893ZM1039.33 263.213C1033.23 269.48 1027.43 276.04 1021.72 282.653C1024.21 285.36 1027.03 287.787 1029.96 290.027C1035.24 294.547 1044.09 293.907 1048.69 288.667C1052.64 285.68 1053.37 280.173 1052.13 275.667C1051.11 271.52 1047.45 268.907 1044.72 265.907C1043.13 264.693 1041.63 262.173 1039.33 263.213Z" fill="white"/>
<path d="M668.547 350.147C672.374 343.267 674.881 335.693 679.401 329.213C727.041 427.773 775.561 525.88 823.667 624.2C862.027 702.507 899.681 781.147 938.374 859.293C918.507 860.067 898.561 859.4 878.667 859.627C835.561 859.627 792.441 859.627 749.334 859.627C722.241 859.373 695.121 859.107 668.027 859.64C585.334 859.6 502.641 859.667 419.947 859.6C423.721 850.147 428.787 841.267 433.094 832.053C459.041 778.373 485.454 724.893 511.547 671.28C523.601 646.8 535.241 622.093 547.681 597.84C567.321 597.92 586.947 597.96 606.587 597.827C596.601 577.733 586.987 557.467 576.881 537.427C607.387 474.973 638.161 412.667 668.547 350.147ZM672.401 429.72C656.841 461.013 641.747 492.507 626.321 523.853C624.107 528.253 621.667 532.627 620.241 537.347C622.067 543.733 625.681 549.453 628.534 555.413C632.121 563.36 636.294 571.013 639.894 578.947C643.507 585.12 645.454 592.16 649.681 597.973C689.027 597.8 728.361 597.933 767.707 597.92C765.147 590.587 760.841 584.08 757.841 576.947C731.494 523.707 705.561 470.28 679.321 417C675.814 420.453 674.561 425.427 672.401 429.72ZM566.361 635.627C591.374 686.12 616.214 736.693 640.921 787.347C646.734 798.84 651.801 810.72 658.027 822C677.334 821.96 696.641 821.987 715.947 821.987C709.214 807.387 701.774 793.093 694.734 778.64C672.081 731.693 649.001 684.92 626.227 638.027C625.467 635.987 623.494 635.093 621.441 635.52C603.081 635.653 584.721 635.453 566.361 635.627ZM667.747 635.613C687.214 676.293 707.107 716.76 726.934 757.267C737.681 778.827 747.801 800.707 759.041 822.013C798.441 821.787 837.841 822.013 877.227 821.907C870.414 806.493 862.694 791.52 855.361 776.347C832.427 729.44 809.547 682.507 786.614 635.587C746.987 635.533 707.361 635.493 667.747 635.613ZM546.214 687.387C524.801 732.347 502.387 776.867 481.041 821.867C525.667 821.96 570.307 822.027 614.921 821.84C592.974 776.28 570.187 731.107 548.374 685.48C547.494 685.947 546.774 686.587 546.214 687.387Z" fill="white"/>
<path d="M1118.49 337.2C1119.47 336.187 1120.59 335.987 1121.85 336.587C1130.41 349.32 1139.97 361.347 1148.64 374.013C1150.13 377.227 1145.32 378.467 1143.67 380.387C1141.03 378.987 1139.53 376.387 1137.99 373.973C1132.45 366.24 1126.64 358.707 1121.37 350.8C1114.84 354.773 1108.88 359.693 1102.67 364.16C1109.12 372.413 1115.08 381.053 1121.24 389.547C1119.41 391.16 1117.52 392.72 1115.64 394.267C1108.61 386.587 1103.4 377.44 1096.92 369.293C1093.52 370.307 1090.79 372.693 1087.95 374.707C1083.6 378.213 1078.61 380.907 1074.73 384.973C1082.28 394.56 1089.49 404.453 1096.29 414.573C1093.95 416.187 1091.63 417.827 1089.36 419.533C1079.6 406.267 1070.32 392.64 1060.24 379.627C1079.61 365.427 1099.16 351.453 1118.49 337.2Z" fill="white"/>
<path d="M217.973 356.413C233.8 357.987 249.24 361.92 264.906 364.507C276.573 365.973 287.973 368.92 299.586 370.733C296.96 374.147 295.133 378.653 291.613 381.107C283.893 380.587 276.4 378.373 268.68 377.893C262.853 387.28 255.546 395.707 250 405.253C253.866 411.427 258.293 417.32 261.24 424.013C260.746 426.613 258.8 428.6 257.48 430.827C243.093 408.547 229.56 385.693 215.213 363.387C213.773 360.827 216.986 358.587 217.973 356.413ZM228.786 370.4C234.16 379.493 239.933 388.347 245.333 397.44C248.773 393.973 250.973 389.56 253.933 385.72C256.253 382.533 258.84 379.413 260.12 375.627C249.68 373.88 239.24 372.093 228.786 370.4Z" fill="white"/>
<path d="M1108.01 450.027C1115.11 449.88 1122.21 449.84 1129.33 449.733C1149.25 448.387 1169.27 448.853 1189.24 448.693C1190.08 451.173 1192.88 454.413 1190.17 456.733C1172.76 476.6 1155.53 496.6 1138.15 516.48C1135.77 512.907 1133.93 509.04 1132.13 505.187C1136.89 498.813 1143 493.547 1147.32 486.84C1145.39 482.44 1143.63 477.947 1141.44 473.667C1138.57 468.173 1137.13 461.987 1133.55 456.88C1125.96 457.013 1118.39 457.093 1110.83 456.987C1109.85 454.667 1108.92 452.347 1108.01 450.027ZM1142.03 456.947C1146.33 464.52 1149.24 472.813 1153.16 480.6C1160.36 472.76 1167.11 464.52 1174.29 456.667C1163.55 456.347 1152.79 456.733 1142.03 456.947Z" fill="white"/>
<path d="M151.226 520.573C161.119 515.013 173.546 515.413 183.532 520.52C199.319 527.24 207.812 546.293 204.012 562.707C201.412 571.693 199.652 580.893 197.506 589.987C184.879 587.547 172.452 584.16 160.039 580.84C148.079 578.6 136.599 574.467 124.652 572.2C125.812 565.72 128.066 559.493 129.186 553C131.599 539.84 138.732 526.533 151.226 520.573ZM147.599 535.693C139.466 541.72 136.652 552.213 135.119 561.76C143.039 564.573 151.439 565.613 159.506 567.88C170.506 571.08 181.679 573.733 192.932 575.893C193.986 567.96 198.546 559.92 195.452 551.92C191.319 531.747 163.212 522.867 147.599 535.693Z" fill="white"/>
<path d="M1212.45 536.6C1215.29 535.4 1218.36 534.92 1221.44 534.787C1223.68 543.627 1224.77 552.707 1226.83 561.6C1229.85 574.467 1232.63 587.427 1234.52 600.507C1231.77 601.013 1229.01 601.44 1226.25 601.8C1224.31 592.853 1223.33 583.693 1220.69 574.92C1213.96 576.24 1207.37 578.213 1200.61 579.387C1185.51 581.707 1170.88 586.36 1155.72 588.32C1155.09 584.16 1153.72 580.093 1153.8 575.853C1175.43 572.613 1196.55 566.787 1218.11 563.147C1216.71 554.2 1215.16 545.24 1212.45 536.6Z" fill="white"/>
<path d="M115.653 667.44C140.453 656.693 165.107 645.627 189.96 635.027C190.12 639.427 190.107 643.853 189.813 648.267C182.773 651.307 175.613 654.08 168.72 657.467C168.147 668.227 169.16 679.093 167.133 689.747C173.227 694.72 181.533 695.573 187.813 700.28C189.333 702.533 188.053 705.613 188.32 708.2C163.667 696.947 138.667 686.387 114.227 674.72C114.587 672.307 113.653 669.28 115.653 667.44ZM130.907 674.08C138.533 677.987 146.627 680.84 154.227 684.787C156.147 685.76 158.2 686.467 160.307 687.013C160.467 678.413 160.787 669.8 160.347 661.213C150.44 665.28 140.667 669.667 130.907 674.08Z" fill="white"/>
<path d="M1165.31 664.72C1178.2 664.547 1191.13 664.84 1203.99 663.6C1215.91 663.627 1227.84 662.973 1239.73 663.52C1239.59 667.44 1239.69 671.373 1239.68 675.32C1229.95 675.52 1220.16 674.947 1210.49 676.36C1195.4 676.533 1180.29 676.68 1165.19 676.853C1164.89 672.813 1164.67 668.733 1165.31 664.72Z" fill="white"/>
<path d="M1215.96 743.973C1223.48 742.627 1230.64 739.76 1238.21 738.667C1237.85 743.187 1236.73 747.613 1236.45 752.16C1224.35 756.24 1211.69 758.373 1199.29 761.387C1191.6 763.6 1183.76 765.227 1175.97 767.067C1193.41 778.107 1211.29 788.453 1228.75 799.467C1228.13 801.813 1227.49 804.147 1227.04 806.533C1223.2 806.173 1220.33 803.307 1217.04 801.627C1197.43 789.48 1177.57 777.76 1158.08 765.427C1158.4 762.853 1158.8 760.307 1159.25 757.76C1169.01 754.84 1178.93 752.56 1188.91 750.48C1197.92 748.28 1206.83 745.64 1215.96 743.973Z" fill="white"/>
<path d="M1139.41 838.747C1146.08 839.813 1151.88 843.64 1158.36 845.4C1174.73 851.933 1191.35 857.867 1207.69 864.467C1209.99 864.84 1209.15 867.107 1208.64 868.587C1203.09 882.493 1197.72 896.453 1192.57 910.507C1189.71 910.173 1186.96 909.347 1184.24 908.493C1187.67 896.6 1193.33 885.48 1196.99 873.667C1190.08 871.187 1183.55 867.573 1176.4 865.867L1175.65 866.293C1172.53 875.853 1168.11 884.92 1165.12 894.533C1162.53 894.413 1160.07 893.627 1157.72 892.64C1159.91 882.067 1166.67 872.84 1167.87 862.08C1159.72 859.493 1151.84 856.2 1143.87 853.173C1138.45 864.373 1135.25 876.52 1129.89 887.773C1127.41 886.6 1124.95 885.48 1122.51 884.28C1127.49 868.853 1134.45 854.16 1139.41 838.747Z" fill="white"/>
<path d="M194.466 866.893C203.506 863.88 212.173 859.8 221.119 856.48C222.653 860.107 224.666 863.667 225.119 867.653C216.186 873.987 203.159 873.6 195.973 882.613C188.239 892.2 180.346 901.68 172.546 911.213C170.359 913.88 168.493 916.947 165.466 918.773C163.826 914.693 162.386 910.547 160.519 906.56C169.186 895.587 178.586 885.213 186.986 874.053C172.813 872.333 158.653 870.213 144.666 867.333C143.853 864.747 143.053 862.147 142.359 859.533C159.746 861.76 176.999 865.48 194.466 866.893Z" fill="white"/>
<path d="M1089.65 940.453C1095.4 932.453 1104.13 924.507 1114.73 925.747C1117.61 925.6 1120.07 927.253 1122.63 928.333C1122.45 931.773 1120.03 934.36 1118.35 937.2C1114.2 935.667 1109.47 934.133 1105.19 936.08C1097.85 939.64 1093.76 947.387 1091.51 954.88C1090.35 959.333 1093.93 962.96 1097.17 965.413C1101.77 968.147 1107.6 966.453 1111.76 963.653C1120.67 958.067 1128.05 949.267 1138.73 947.093C1146.81 945.467 1154.52 950.84 1158.24 957.693C1161.81 965.427 1159.77 974.8 1155.04 981.587C1150.83 988.453 1144.21 994.773 1135.88 995.707C1132.24 996.307 1128.65 995.293 1125.2 994.28C1125.72 990.813 1127.95 988.133 1130.27 985.68C1133.35 986.187 1136.68 987.92 1139.72 986.32C1145.24 983.787 1148.67 978.293 1150.96 972.907C1152.67 968.373 1151.85 961.893 1146.96 959.747C1143.72 957.893 1139.89 959.293 1136.88 960.92C1127.11 966.64 1119.36 975.853 1108.21 979.12C1096.32 982.627 1083.4 971.96 1083.21 959.893C1082.79 952.853 1086.36 946.413 1089.65 940.453Z" fill="white"/>
<path d="M211.879 981.16C229.653 968.987 248.079 957.72 265.666 945.267C268.466 948.52 271.066 952.013 272.719 956.013C254.186 967.64 236.253 980.187 217.759 991.88C222.666 999.653 227.786 1007.29 232.946 1014.91C230.466 1016.55 227.946 1018.11 225.359 1019.56C213.093 1000.91 201.093 982.053 188.359 963.747C190.733 961.893 193.239 960.227 195.879 958.8C200.626 966.133 205.679 973.293 210.093 980.84C210.533 980.92 211.426 981.08 211.879 981.16Z" fill="white"/>
<path d="M312.679 1023.35C315.373 1020.76 317.759 1017.81 320.986 1015.85C323.746 1018.69 326.506 1021.52 329.239 1024.4C312.639 1040.99 295.253 1056.79 278.613 1073.35C277.559 1074.4 276.253 1075.16 274.973 1075.92C272.466 1072.97 268.453 1070.65 267.199 1067.03C282.173 1052.27 297.519 1037.89 312.679 1023.35Z" fill="white"/>
<path d="M370.867 1066.96C371.761 1065.65 372.747 1064.35 374.441 1064.19C378.467 1076.56 379.361 1089.67 382.147 1102.33C385.041 1114.68 387.107 1127.2 388.921 1139.75C389.521 1139.68 390.694 1139.52 391.294 1139.45C399.227 1126.63 408.521 1114.69 416.761 1102.07C417.787 1100.88 418.481 1098.96 420.254 1098.77C422.747 1098.88 424.441 1100.88 426.281 1102.29C411.521 1123.11 397.321 1144.32 382.467 1165.05C381.361 1163.59 380.187 1162.08 380.134 1160.17C377.814 1144.71 373.827 1129.57 371.601 1114.09C370.374 1105.47 367.747 1097.09 366.787 1088.44C366.467 1088.4 365.814 1088.33 365.494 1088.29C355.627 1102.43 345.907 1116.67 336.041 1130.8C333.787 1129.27 331.667 1127.59 329.721 1125.71C343.947 1106.49 356.987 1086.43 370.867 1066.96Z" fill="white"/>
<path d="M969.986 1071.24C978.853 1064.49 990.666 1063.16 1001.41 1064.93C1014.35 1068.01 1024.4 1078.68 1029.52 1090.63C1032.12 1098.35 1032.12 1106.99 1029.55 1114.71C1023.79 1128.45 1011.37 1139.16 997.053 1143.17C989.973 1144.83 982.733 1142.79 976.786 1138.88C979.506 1136.61 982.2 1134.32 985.106 1132.29C1000.36 1139.72 1019.37 1125.6 1019.57 1109.36C1021.28 1090.79 1003.45 1072.51 984.72 1074.93C975.186 1075.56 967.12 1082.07 961.293 1089.21C958.053 1093.76 956.826 1099.35 955.013 1104.53C952.866 1104.47 950.72 1104.41 948.6 1104.36C948.613 1090.33 958.88 1078.68 969.986 1071.24Z" fill="white"/>
<path d="M883.054 1124.41C895.841 1122.08 909.641 1126.61 918.107 1136.55C924.041 1142.04 926.827 1149.99 928.361 1157.73C929.934 1167.09 926.827 1176.67 921.814 1184.55C911.321 1199 891.307 1206.43 874.121 1200.73C864.481 1197.12 855.774 1190.13 851.334 1180.73C847.641 1173.47 848.174 1165.12 848.721 1157.24C851.627 1140.31 866.734 1127.76 883.054 1124.41ZM876.694 1134.4C864.894 1139.23 857.907 1152.64 860.041 1165.11C861.854 1178.97 872.721 1191.69 886.787 1194C898.827 1195.76 911.067 1187.72 915.107 1176.41C920.414 1159.35 910.321 1138.91 893.241 1133.28C887.827 1131.73 881.827 1132.01 876.694 1134.4Z" fill="white"/>
<path d="M467.319 1139.31C472.333 1135.07 478.479 1131.43 485.306 1132.12C491.946 1131.57 497.973 1134.63 503.706 1137.53C513.079 1141.88 519.999 1152.07 519.146 1162.56C517.239 1171.68 513.746 1180.36 510.066 1188.89C506.706 1198.44 502.586 1207.69 499.039 1217.19C495.173 1215.8 491.373 1214.21 487.786 1212.23C492.733 1198.93 498.359 1185.91 503.159 1172.57C505.293 1167.27 508.519 1161.88 507.346 1155.92C504.466 1142.19 485.466 1134.47 474.346 1143.63C466.519 1149.97 465.519 1160.68 461.159 1169.2C457.746 1178.64 453.786 1187.88 450.239 1197.28C447.853 1196.67 445.479 1195.99 443.133 1195.28C445.706 1186.28 450.186 1177.99 453.026 1169.07C457.893 1159.19 459.679 1147.64 467.319 1139.31Z" fill="white"/>
<path d="M784.479 1159.6C787.039 1159.19 789.626 1158.91 792.239 1158.8C795.133 1183.37 799.893 1207.67 802.986 1232.21C800.119 1232.69 797.266 1233.27 794.453 1233.97C783.546 1221 773.999 1206.92 763.693 1193.47C759.733 1189.03 757.173 1183.45 752.626 1179.56C745.213 1200.89 737.373 1222.08 729.893 1243.39C726.626 1244.55 723.173 1244.96 719.733 1244.67C719.586 1236.83 717.599 1229.2 716.639 1221.45C715.266 1209.77 713.533 1198.15 711.439 1186.59C710.719 1181.19 709.093 1175.79 709.906 1170.29C713.866 1170 717.839 1169.77 721.813 1169.76C723.706 1187.47 726.893 1204.97 729.746 1222.53C736.933 1202.72 743.826 1182.81 751.493 1163.17C752.733 1163.19 753.973 1163.2 755.226 1163.23C765.613 1177.29 776.039 1191.33 786.519 1205.33C788.119 1207.37 789.133 1210.04 791.613 1211.27C791.839 1204.15 789.719 1197.31 788.879 1190.29C787.546 1180.04 786.119 1169.8 784.479 1159.6Z" fill="white"/>
<path d="M573.68 1161.53C577.866 1161.6 582.053 1161.77 586.24 1162.16C584.52 1180.24 581.053 1198.08 579.453 1216.19C592.266 1199.17 604.146 1181.47 617.24 1164.69C618.053 1165.09 619.693 1165.91 620.506 1166.31C625.813 1180.91 631.36 1195.43 636.92 1209.93C638.773 1214.73 639.64 1220.13 643.013 1224.19C643.946 1206.43 647.68 1188.95 648.973 1171.24C651.613 1171.29 654.253 1171.43 656.906 1171.6C654.386 1190.32 651.866 1209.07 649.906 1227.88C648.773 1233.75 648.44 1239.72 648.133 1245.69C644.733 1245.77 641.373 1245.19 638.04 1244.69C630.226 1223.43 621.693 1202.41 614.04 1181.08C610.733 1183.97 608.8 1187.99 606.173 1191.45C595.16 1206.49 584.64 1221.91 573.373 1236.77C570.466 1236.23 567.586 1235.59 564.68 1235.12C566.746 1210.47 571.333 1186.15 573.68 1161.53Z" fill="white"/>
<path d="M635.347 57.0266C659.081 55.08 682.92 55.3466 706.734 55.6666C725.4 57.1333 744.2 57.48 762.72 60.4533C859.84 73 953.947 108.6 1034.69 164.067C1104.37 211.773 1164.28 273.627 1209.88 344.693C1246.47 402.013 1273.72 465.347 1289.73 531.44C1294.4 548.347 1297.01 565.707 1300.35 582.907C1302.56 596.453 1303.8 610.133 1305.12 623.787C1306.33 629.587 1305.83 635.533 1306.32 641.413C1308.17 652.387 1307.35 663.587 1307.61 674.68C1307.33 691.107 1308.43 707.64 1306.17 723.96C1306.09 735.853 1304.11 747.6 1303.11 759.427C1301.72 775.467 1298.05 791.16 1295.44 807.013C1284.35 861.08 1266.24 913.733 1241.43 963.053C1194.03 1057.41 1122.12 1139.17 1035.07 1198.87C961.747 1249.2 877.467 1283.53 789.8 1298.53C771.627 1302.43 753.014 1303.52 734.627 1305.85C729.72 1305.79 724.88 1306.44 720.054 1307.11C699.6 1307.87 679.12 1307.61 658.654 1307.53C651.8 1307.25 644.867 1307.65 638.107 1306.35C526.347 1299.05 416.747 1260.67 324.841 1196.6C253.427 1146.87 192.294 1082.36 146.827 1008.12C106.321 942.027 78.5605 868.28 64.9205 792C62.2805 774.307 59.0538 756.693 57.7605 738.84C56.8672 728.587 56.7605 718.293 55.7205 708.067C54.8138 667.56 55.7738 626.84 62.4938 586.813C81.9738 454.28 146.294 329.013 242.067 235.387C326.001 152.16 434.107 93.5333 549.801 69.24C564.614 65.36 579.881 63.84 594.921 61.2C608.321 59.16 621.801 57.7333 635.347 57.0266ZM626.454 126.493C615.641 133.627 610.374 147.36 611.347 159.973C612.921 170.72 616.987 182.027 626.334 188.413C636.067 196.307 649.467 196.427 661.32 195.08C671.24 193.6 681.601 188.947 687.041 180.187C685.187 179.04 683.347 177.88 681.534 176.68C677 180.68 672.307 185 666.267 186.467C657.841 188.48 648.507 188.653 640.534 184.893C623.334 175.387 618.854 149.293 632.32 134.827C642.507 123.56 664.467 122.56 672.707 136.6C676.041 136.467 679.374 136.347 682.72 136.213C679.854 126.893 670.881 120.48 661.387 119.4C649.467 118.36 636.387 119.093 626.454 126.493ZM733.281 121.467C736.481 134.013 742.147 145.733 746.014 158.067C747.601 163.107 751 167.813 750.48 173.32C750.2 182.133 746.987 190.547 746.88 199.387C750.827 199.947 754.801 200.453 758.761 201.053C759.987 193.32 761.16 185.587 762.32 177.84C762.934 174.6 763.934 171.36 766.107 168.8C773.094 160.24 780.041 151.64 787.014 143.053C790.027 139.12 793.627 135.613 796.054 131.24C793.307 130.573 790.547 130.027 787.774 129.573C778.654 140.493 770.121 151.907 760.694 162.56C756.001 149.427 751.494 136.2 746.267 123.267C741.947 122.533 737.641 121.813 733.281 121.467ZM538.934 136.173C543.574 153.16 549.267 169.827 553.841 186.84C533.654 176.013 513.334 165.413 493.094 154.68C490.054 152.987 487.094 150.893 483.521 150.6C483.494 152.213 483.747 153.787 484.307 155.32C491.067 178.16 498.094 200.907 504.761 223.773C507.201 223.667 509.574 223.067 511.921 222.4C508.267 205.227 501.854 188.76 497.521 171.747C502.934 173.48 507.361 177.24 512.587 179.427C527.774 187.387 542.854 195.533 558.081 203.44C561.294 205 564.454 208.213 568.294 207C562.934 189.453 557.827 171.827 552.294 154.333C550.214 147.493 549.027 140.24 545.521 133.947C543.347 134.76 541.147 135.493 538.934 136.173ZM410.467 186.507C401.814 191.413 393.147 196.28 384.454 201.107C387.187 208.16 391.8 214.213 395.08 221C403.72 236.053 412.12 251.227 420.654 266.333C435.307 259.053 449.201 250.213 463.721 242.627C462.881 239.747 461.04 237.347 459.147 235.093C448.587 240.853 438.241 246.973 427.681 252.72C422.627 245.347 418.547 237.333 414.32 229.467C423.214 224.093 432.494 219.413 441.374 214.013C440.707 211.467 439.267 209.253 437.694 207.187C428.427 212.267 419.467 217.947 409.961 222.56C407.014 215.6 402.267 209.6 399.414 202.6C410.067 197.027 420.387 190.853 430.921 185.067C430.121 182.44 429.027 179.907 427.627 177.547C421.387 179.453 416.294 183.72 410.467 186.507ZM924.694 190.187C904.481 197.8 894.574 223.867 903.56 243.253C911.44 258.027 927.667 266.893 943.974 268.587C948.467 269.08 952.827 267.867 957.067 266.507C956.827 264.547 956.587 262.6 956.374 260.667C950.947 260.173 945.507 261.24 940.107 260.573C930.787 259.08 922.294 253.547 916.96 245.813C906.214 229.227 916.334 204.293 934.88 198.573C944.454 196.267 955.481 198.227 962.587 205.387C967.281 209.347 969.334 215.533 968.947 221.56C972.254 223.253 975.361 225.48 979.014 226.413C979.361 220.613 978.894 214.48 975.907 209.347C972.747 203.467 967.494 199.08 962.054 195.387C950.987 188.96 937.014 184.653 924.694 190.187ZM296.307 268.227C288.507 279.173 287.227 294.533 293.761 306.373C299.694 316.653 309.867 324.56 321.427 327.373C328.467 328.053 336.041 328.427 342.507 325.053C354.014 320.213 363.16 310.693 368.814 299.693C373.92 300.907 376.854 296 380.28 293.16C372.854 284.2 364.747 275.8 357.2 266.933C351.454 271.813 345.894 276.92 340.214 281.867C340.961 284.187 342.667 285.96 344.254 287.747C347.401 285.693 350.214 283.187 352.601 280.307C356.601 284.067 360.107 288.32 363.974 292.227C361.201 301.2 354.494 308.453 346.707 313.453C340.347 317.347 332.494 317.773 325.321 316.36C316.427 313.733 309.52 306.72 304.627 299.093C299.68 291.96 298.921 282.253 302.094 274.253C307.241 264.48 317.054 257.093 328.067 255.507C330.761 255 333.147 256.96 335.787 256.813C338.534 254.813 341.107 252.507 343.027 249.68C337.587 247.013 331.467 246.72 325.534 247.453C313.4 249.987 303.507 258.467 296.307 268.227ZM986.241 302.893C988.334 306.52 991.88 308.88 994.88 311.693C1002.45 304.253 1009.04 295.907 1016.4 288.28C1018.81 291.093 1022.63 293.2 1022.93 297.253C1022.57 308.96 1018.04 320.333 1019.32 332.107C1021.4 337.627 1025.59 342.773 1031.56 344.2C1032.99 342.747 1034.43 341.307 1035.89 339.88C1033.25 337.307 1029.72 334.693 1030.21 330.52C1030.51 320.56 1032.21 310.653 1034.25 300.92C1039.36 302.773 1045.09 304.52 1050.36 302.16C1057.57 300 1062.63 293.413 1064.39 286.293C1065.47 279.147 1061.67 272.16 1056.85 267.16C1050.04 260.733 1043.31 254.213 1036.07 248.267C1019.41 266.427 1003.01 284.827 986.241 302.893ZM668.547 350.147C638.161 412.667 607.387 474.973 576.881 537.427C586.987 557.467 596.601 577.733 606.587 597.827C586.947 597.96 567.321 597.92 547.681 597.84C535.241 622.093 523.601 646.8 511.547 671.28C485.454 724.893 459.041 778.373 433.094 832.053C428.787 841.267 423.72 850.147 419.947 859.6C502.64 859.667 585.334 859.6 668.027 859.64C695.12 859.107 722.241 859.373 749.334 859.627C792.441 859.627 835.561 859.627 878.667 859.627C898.561 859.4 918.507 860.067 938.374 859.293C899.681 781.147 862.027 702.507 823.667 624.2C775.561 525.88 727.04 427.773 679.4 329.213C674.88 335.693 672.374 343.267 668.547 350.147ZM1118.49 337.2C1099.16 351.453 1079.61 365.427 1060.24 379.627C1070.32 392.64 1079.6 406.267 1089.36 419.533C1091.63 417.827 1093.95 416.187 1096.29 414.573C1089.49 404.453 1082.28 394.56 1074.73 384.973C1078.61 380.907 1083.6 378.213 1087.95 374.707C1090.79 372.693 1093.52 370.307 1096.92 369.293C1103.4 377.44 1108.61 386.587 1115.64 394.267C1117.52 392.72 1119.41 391.16 1121.24 389.547C1115.08 381.053 1109.12 372.413 1102.67 364.16C1108.88 359.693 1114.84 354.773 1121.37 350.8C1126.64 358.707 1132.45 366.24 1137.99 373.973C1139.53 376.387 1141.03 378.987 1143.67 380.387C1145.32 378.467 1150.13 377.227 1148.64 374.013C1139.97 361.347 1130.41 349.32 1121.85 336.587C1120.59 335.987 1119.47 336.187 1118.49 337.2ZM217.974 356.413C216.987 358.587 213.774 360.827 215.214 363.387C229.561 385.693 243.094 408.547 257.48 430.827C258.8 428.6 260.747 426.613 261.24 424.013C258.294 417.32 253.867 411.427 250 405.253C255.547 395.707 262.854 387.28 268.68 377.893C276.4 378.373 283.894 380.587 291.614 381.107C295.134 378.653 296.96 374.147 299.587 370.733C287.974 368.92 276.574 365.973 264.907 364.507C249.24 361.92 233.8 357.987 217.974 356.413ZM1108.01 450.027C1108.92 452.347 1109.85 454.667 1110.83 456.987C1118.39 457.093 1125.96 457.013 1133.55 456.88C1137.13 461.987 1138.57 468.173 1141.44 473.667C1143.63 477.947 1145.39 482.44 1147.32 486.84C1143 493.547 1136.89 498.813 1132.13 505.187C1133.93 509.04 1135.77 512.907 1138.15 516.48C1155.53 496.6 1172.76 476.6 1190.17 456.733C1192.88 454.413 1190.08 451.173 1189.24 448.693C1169.27 448.853 1149.25 448.387 1129.33 449.733C1122.21 449.84 1115.11 449.88 1108.01 450.027ZM151.227 520.573C138.734 526.533 131.6 539.84 129.187 553C128.067 559.493 125.814 565.72 124.654 572.2C136.6 574.467 148.08 578.6 160.04 580.84C172.454 584.16 184.881 587.547 197.507 589.987C199.654 580.893 201.414 571.693 204.014 562.707C207.814 546.293 199.32 527.24 183.534 520.52C173.547 515.413 161.12 515.013 151.227 520.573ZM1212.45 536.6C1215.16 545.24 1216.71 554.2 1218.11 563.147C1196.55 566.787 1175.43 572.613 1153.8 575.853C1153.72 580.093 1155.09 584.16 1155.72 588.32C1170.88 586.36 1185.51 581.707 1200.61 579.387C1207.37 578.213 1213.96 576.24 1220.69 574.92C1223.33 583.693 1224.31 592.853 1226.25 601.8C1229.01 601.44 1231.77 601.013 1234.52 600.507C1232.63 587.427 1229.85 574.467 1226.83 561.6C1224.77 552.707 1223.68 543.627 1221.44 534.787C1218.36 534.92 1215.29 535.4 1212.45 536.6ZM115.654 667.44C113.654 669.28 114.587 672.307 114.227 674.72C138.667 686.387 163.667 696.947 188.321 708.2C188.054 705.613 189.334 702.533 187.814 700.28C181.534 695.573 173.227 694.72 167.134 689.747C169.16 679.093 168.147 668.227 168.721 657.467C175.614 654.08 182.774 651.307 189.814 648.267C190.107 643.853 190.121 639.427 189.961 635.027C165.107 645.627 140.454 656.693 115.654 667.44ZM1165.31 664.72C1164.67 668.733 1164.89 672.813 1165.19 676.853C1180.29 676.68 1195.4 676.533 1210.49 676.36C1220.16 674.947 1229.95 675.52 1239.68 675.32C1239.69 671.373 1239.59 667.44 1239.73 663.52C1227.84 662.973 1215.91 663.627 1203.99 663.6C1191.13 664.84 1178.2 664.547 1165.31 664.72ZM1215.96 743.973C1206.83 745.64 1197.92 748.28 1188.91 750.48C1178.93 752.56 1169.01 754.84 1159.25 757.76C1158.8 760.307 1158.4 762.853 1158.08 765.427C1177.57 777.76 1197.43 789.48 1217.04 801.627C1220.33 803.307 1223.2 806.173 1227.04 806.533C1227.49 804.147 1228.13 801.813 1228.75 799.467C1211.29 788.453 1193.41 778.107 1175.97 767.067C1183.76 765.227 1191.6 763.6 1199.29 761.387C1211.69 758.373 1224.35 756.24 1236.45 752.16C1236.73 747.613 1237.85 743.187 1238.21 738.667C1230.64 739.76 1223.48 742.627 1215.96 743.973ZM1139.41 838.747C1134.45 854.16 1127.49 868.853 1122.51 884.28C1124.95 885.48 1127.41 886.6 1129.89 887.773C1135.25 876.52 1138.45 864.373 1143.87 853.173C1151.84 856.2 1159.72 859.493 1167.87 862.08C1166.67 872.84 1159.91 882.067 1157.72 892.64C1160.07 893.627 1162.53 894.413 1165.12 894.533C1168.11 884.92 1172.53 875.853 1175.65 866.293L1176.4 865.867C1183.55 867.573 1190.08 871.187 1196.99 873.667C1193.33 885.48 1187.67 896.6 1184.24 908.493C1186.96 909.347 1189.71 910.173 1192.57 910.507C1197.72 896.453 1203.09 882.493 1208.64 868.587C1209.15 867.107 1209.99 864.84 1207.69 864.467C1191.35 857.867 1174.73 851.933 1158.36 845.4C1151.88 843.64 1146.08 839.813 1139.41 838.747ZM194.467 866.893C177.001 865.48 159.747 861.76 142.36 859.533C143.054 862.147 143.854 864.747 144.667 867.333C158.654 870.213 172.814 872.333 186.987 874.053C178.587 885.213 169.187 895.587 160.521 906.56C162.387 910.547 163.827 914.693 165.467 918.773C168.494 916.947 170.361 913.88 172.547 911.213C180.347 901.68 188.24 892.2 195.974 882.613C203.16 873.6 216.187 873.987 225.12 867.653C224.667 863.667 222.654 860.107 221.12 856.48C212.174 859.8 203.507 863.88 194.467 866.893ZM1089.65 940.453C1086.36 946.413 1082.79 952.853 1083.21 959.893C1083.4 971.96 1096.32 982.627 1108.21 979.12C1119.36 975.853 1127.11 966.64 1136.88 960.92C1139.89 959.293 1143.72 957.893 1146.96 959.747C1151.85 961.893 1152.67 968.373 1150.96 972.907C1148.67 978.293 1145.24 983.787 1139.72 986.32C1136.68 987.92 1133.35 986.187 1130.27 985.68C1127.95 988.133 1125.72 990.813 1125.2 994.28C1128.65 995.293 1132.24 996.307 1135.88 995.707C1144.21 994.773 1150.83 988.453 1155.04 981.587C1159.77 974.8 1161.81 965.427 1158.24 957.693C1154.52 950.84 1146.81 945.467 1138.73 947.093C1128.05 949.267 1120.67 958.067 1111.76 963.653C1107.6 966.453 1101.77 968.147 1097.17 965.413C1093.93 962.96 1090.35 959.333 1091.51 954.88C1093.76 947.387 1097.85 939.64 1105.19 936.08C1109.47 934.133 1114.2 935.667 1118.35 937.2C1120.03 934.36 1122.45 931.773 1122.63 928.333C1120.07 927.253 1117.61 925.6 1114.73 925.747C1104.13 924.507 1095.4 932.453 1089.65 940.453ZM211.881 981.16C211.427 981.08 210.534 980.92 210.094 980.84C205.681 973.293 200.627 966.133 195.881 958.8C193.241 960.227 190.734 961.893 188.361 963.747C201.094 982.053 213.094 1000.91 225.361 1019.56C227.947 1018.11 230.467 1016.55 232.947 1014.91C227.787 1007.29 222.667 999.653 217.761 991.88C236.254 980.187 254.187 967.64 272.72 956.013C271.067 952.013 268.467 948.52 265.667 945.267C248.08 957.72 229.654 968.987 211.881 981.16ZM312.68 1023.35C297.52 1037.89 282.174 1052.27 267.2 1067.03C268.454 1070.65 272.467 1072.97 274.974 1075.92C276.254 1075.16 277.561 1074.4 278.614 1073.35C295.254 1056.79 312.64 1040.99 329.24 1024.4C326.507 1021.52 323.747 1018.69 320.987 1015.85C317.761 1017.81 315.374 1020.76 312.68 1023.35ZM370.867 1066.96C356.987 1086.43 343.947 1106.49 329.72 1125.71C331.667 1127.59 333.787 1129.27 336.04 1130.8C345.907 1116.67 355.627 1102.43 365.494 1088.29C365.814 1088.33 366.467 1088.4 366.787 1088.44C367.747 1097.09 370.374 1105.47 371.601 1114.09C373.827 1129.57 377.814 1144.71 380.134 1160.17C380.187 1162.08 381.361 1163.59 382.467 1165.05C397.321 1144.32 411.52 1123.11 426.28 1102.29C424.44 1100.88 422.747 1098.88 420.254 1098.77C418.481 1098.96 417.787 1100.88 416.761 1102.07C408.521 1114.69 399.227 1126.63 391.294 1139.45C390.694 1139.52 389.521 1139.68 388.921 1139.75C387.107 1127.2 385.04 1114.68 382.147 1102.33C379.36 1089.67 378.467 1076.56 374.44 1064.19C372.747 1064.35 371.76 1065.65 370.867 1066.96ZM969.987 1071.24C958.881 1078.68 948.614 1090.33 948.601 1104.36C950.721 1104.41 952.867 1104.47 955.014 1104.53C956.827 1099.35 958.054 1093.76 961.294 1089.21C967.12 1082.07 975.187 1075.56 984.72 1074.93C1003.45 1072.51 1021.28 1090.79 1019.57 1109.36C1019.37 1125.6 1000.36 1139.72 985.107 1132.29C982.201 1134.32 979.507 1136.61 976.787 1138.88C982.734 1142.79 989.974 1144.83 997.054 1143.17C1011.37 1139.16 1023.79 1128.45 1029.55 1114.71C1032.12 1106.99 1032.12 1098.35 1029.52 1090.63C1024.4 1078.68 1014.35 1068.01 1001.41 1064.93C990.667 1063.16 978.854 1064.49 969.987 1071.24ZM883.054 1124.41C866.734 1127.76 851.627 1140.31 848.72 1157.24C848.174 1165.12 847.641 1173.47 851.334 1180.73C855.774 1190.13 864.481 1197.12 874.121 1200.73C891.307 1206.43 911.32 1199 921.814 1184.55C926.827 1176.67 929.934 1167.09 928.361 1157.73C926.827 1149.99 924.041 1142.04 918.107 1136.55C909.641 1126.61 895.84 1122.08 883.054 1124.41ZM467.32 1139.31C459.68 1147.64 457.894 1159.19 453.027 1169.07C450.187 1177.99 445.707 1186.28 443.134 1195.28C445.481 1195.99 447.854 1196.67 450.24 1197.28C453.787 1187.88 457.747 1178.64 461.16 1169.2C465.52 1160.68 466.521 1149.97 474.347 1143.63C485.467 1134.47 504.467 1142.19 507.347 1155.92C508.521 1161.88 505.294 1167.27 503.16 1172.57C498.36 1185.91 492.734 1198.93 487.787 1212.23C491.374 1214.21 495.174 1215.8 499.04 1217.19C502.587 1207.69 506.707 1198.44 510.067 1188.89C513.747 1180.36 517.24 1171.68 519.147 1162.56C520 1152.07 513.081 1141.88 503.707 1137.53C497.974 1134.63 491.947 1131.57 485.307 1132.12C478.481 1131.43 472.334 1135.07 467.32 1139.31ZM784.48 1159.6C786.12 1169.8 787.547 1180.04 788.88 1190.29C789.72 1197.31 791.841 1204.15 791.614 1211.27C789.134 1210.04 788.121 1207.37 786.521 1205.33C776.041 1191.33 765.614 1177.29 755.227 1163.23C753.974 1163.2 752.734 1163.19 751.494 1163.17C743.827 1182.81 736.934 1202.72 729.747 1222.53C726.894 1204.97 723.707 1187.47 721.814 1169.76C717.84 1169.77 713.867 1170 709.907 1170.29C709.094 1175.79 710.721 1181.19 711.441 1186.59C713.534 1198.15 715.267 1209.77 716.64 1221.45C717.6 1229.2 719.587 1236.83 719.734 1244.67C723.174 1244.96 726.627 1244.55 729.894 1243.39C737.374 1222.08 745.214 1200.89 752.627 1179.56C757.174 1183.45 759.734 1189.03 763.694 1193.47C774.001 1206.92 783.547 1221 794.454 1233.97C797.267 1233.27 800.12 1232.69 802.987 1232.21C799.894 1207.67 795.134 1183.37 792.241 1158.8C789.627 1158.91 787.04 1159.19 784.48 1159.6ZM573.681 1161.53C571.334 1186.15 566.747 1210.47 564.681 1235.12C567.587 1235.59 570.467 1236.23 573.374 1236.77C584.641 1221.91 595.161 1206.49 606.174 1191.45C608.801 1187.99 610.734 1183.97 614.041 1181.08C621.694 1202.41 630.227 1223.43 638.041 1244.69C641.374 1245.19 644.734 1245.77 648.134 1245.69C648.441 1239.72 648.774 1233.75 649.907 1227.88C651.867 1209.07 654.387 1190.32 656.907 1171.6C654.254 1171.43 651.614 1171.29 648.974 1171.24C647.681 1188.95 643.947 1206.43 643.014 1224.19C639.641 1220.13 638.774 1214.73 636.921 1209.93C631.361 1195.43 625.814 1180.91 620.507 1166.31C619.694 1165.91 618.054 1165.09 617.24 1164.69C604.147 1181.47 592.267 1199.17 579.454 1216.19C581.054 1198.08 584.52 1180.24 586.24 1162.16C582.054 1161.77 577.867 1161.6 573.681 1161.53Z" fill="#050505"/>
<path d="M1039.33 263.213C1041.63 262.173 1043.13 264.693 1044.72 265.907C1047.45 268.907 1051.11 271.52 1052.13 275.667C1053.37 280.173 1052.64 285.68 1048.69 288.667C1044.09 293.907 1035.24 294.547 1029.96 290.027C1027.03 287.787 1024.21 285.36 1021.72 282.653C1027.43 276.04 1033.23 269.48 1039.33 263.213Z" fill="#050505"/>
<path d="M228.787 370.4C239.24 372.093 249.68 373.88 260.12 375.627C258.84 379.413 256.254 382.533 253.934 385.72C250.974 389.56 248.774 393.973 245.334 397.44C239.934 388.347 234.16 379.493 228.787 370.4Z" fill="#050505"/>
<path d="M672.4 429.72C674.56 425.427 675.814 420.453 679.32 417C705.56 470.28 731.494 523.707 757.84 576.947C760.84 584.08 765.147 590.587 767.707 597.92C728.36 597.933 689.027 597.8 649.68 597.973C645.454 592.16 643.507 585.12 639.894 578.947C636.294 571.013 632.12 563.36 628.534 555.413C625.68 549.453 622.067 543.733 620.24 537.347C621.667 532.627 624.107 528.253 626.32 523.853C641.747 492.507 656.84 461.013 672.4 429.72Z" fill="#050505"/>
<path d="M1142.03 456.947C1152.79 456.733 1163.55 456.347 1174.29 456.667C1167.11 464.52 1160.36 472.76 1153.16 480.6C1149.24 472.813 1146.33 464.52 1142.03 456.947Z" fill="#050505"/>
<path d="M147.601 535.693C163.214 522.867 191.321 531.747 195.454 551.92C198.548 559.92 193.988 567.96 192.934 575.893C181.681 573.733 170.508 571.08 159.508 567.88C151.441 565.613 143.041 564.573 135.121 561.76C136.654 552.213 139.468 541.72 147.601 535.693Z" fill="#050505"/>
<path d="M566.361 635.627C584.721 635.453 603.081 635.653 621.441 635.52C623.495 635.093 625.468 635.987 626.228 638.027C649.001 684.92 672.081 731.693 694.735 778.64C701.775 793.093 709.215 807.387 715.948 821.987C696.641 821.987 677.335 821.96 658.028 822C651.801 810.72 646.735 798.84 640.921 787.347C616.215 736.693 591.375 686.12 566.361 635.627Z" fill="#050505"/>
<path d="M667.748 635.613C707.361 635.493 746.988 635.533 786.615 635.587C809.548 682.507 832.428 729.44 855.361 776.347C862.695 791.52 870.415 806.493 877.228 821.907C837.841 822.013 798.441 821.787 759.041 822.013C747.801 800.707 737.681 778.827 726.935 757.267C707.108 716.76 687.215 676.293 667.748 635.613Z" fill="#050505"/>
<path d="M130.906 674.08C140.666 669.667 150.44 665.28 160.346 661.213C160.786 669.8 160.466 678.413 160.306 687.013C158.2 686.467 156.146 685.76 154.226 684.787C146.626 680.84 138.533 677.987 130.906 674.08Z" fill="#050505"/>
<path d="M546.214 687.387C546.774 686.587 547.494 685.947 548.374 685.48C570.188 731.107 592.974 776.28 614.921 821.84C570.308 822.027 525.668 821.96 481.041 821.867C502.388 776.867 524.801 732.347 546.214 687.387Z" fill="#050505"/>
<path d="M876.695 1134.4C881.828 1132.01 887.828 1131.73 893.242 1133.28C910.322 1138.91 920.415 1159.35 915.108 1176.41C911.068 1187.72 898.828 1195.76 886.788 1194C872.722 1191.69 861.855 1178.97 860.042 1165.11C857.908 1152.64 864.895 1139.23 876.695 1134.4Z" fill="#050505"/>
</g>
<defs>
<clipPath id="clip0_1000_18812">
<rect width="1364" height="1364" fill="white"/>
</clipPath>
</defs>
</svg>
