<svg preserveAspectRatio="xMidYMid meet" data-bbox="20 68 160 63.242" xmlns="http://www.w3.org/2000/svg" viewBox="20 68 160 63.242" height="200" width="200" data-type="color" role="presentation" aria-hidden="true" aria-label=""><defs><style>#comp-m8r5a1rh7__item1 svg [data-color="1"] {fill: #FFFFFF;}</style></defs>
    <g>
        <path fill="#ffffff" d="M51.887 102.647c0 .575-.124.993-.37 1.256s-.624.395-1.134.395c-.46 0-.895-.14-1.306-.419-.41-.28-.813-.6-1.207-.961a10.798 10.798 0 0 0-1.109-.937c-.345-.279-.682-.419-1.01-.419-.362 0-.772.14-1.232.419-.46.263-1.027.575-1.7.937-.658.345-1.463.657-2.416.936-.936.279-2.078.419-3.425.419-2.645 0-5.019-.427-7.121-1.281-2.087-.855-3.86-2.07-5.323-3.648-1.462-1.593-2.587-3.49-3.376-5.692C20.386 91.434 20 88.978 20 86.284c0-2.628.444-5.051 1.33-7.27.888-2.233 2.128-4.172 3.722-5.815a16.865 16.865 0 0 1 5.593-3.82C32.797 68.46 35.138 68 37.668 68c1.66 0 3.007.156 4.041.468 1.052.296 1.881.592 2.49.887.624.296 1.125.444 1.503.444.443 0 .813-.132 1.108-.394.296-.28.592-.55.887-.814a1.64 1.64 0 0 1 1.134-.418c.312 0 .575.106.789.32.213.197.394.542.542 1.035l2.489 8.945c.114.41.065.772-.148 1.084-.197.312-.501.517-.912.616-.427.099-.822.066-1.183-.099-.345-.164-.616-.468-.813-.911-.887-2.087-1.898-3.721-3.031-4.904-1.133-1.2-2.341-2.045-3.622-2.538a11.028 11.028 0 0 0-3.992-.74c-1.906 0-3.565.551-4.978 1.652-1.413 1.1-2.514 2.677-3.302 4.73-.772 2.038-1.158 4.47-1.158 7.295 0 3.4.443 6.259 1.33 8.575.904 2.317 2.128 4.066 3.672 5.25a8.513 8.513 0 0 0 5.273 1.773c.575 0 1.093-.065 1.553-.197.46-.148.846-.345 1.158-.591a2.64 2.64 0 0 0 .715-.937c.18-.361.27-.764.27-1.207v-6.16c0-.346-.09-.608-.27-.79-.181-.18-.534-.336-1.06-.467l-1.43-.32c-.426-.116-.755-.28-.985-.493a1.061 1.061 0 0 1-.345-.814c0-.377.132-.673.395-.887.279-.23.698-.345 1.256-.345h12.247c.559 0 .97.115 1.232.345.28.214.42.501.42.863 0 .312-.091.566-.272.764-.164.197-.435.37-.813.517l-.788.246c-.395.132-.69.296-.888.493-.197.197-.295.493-.295.887v11.484Z" data-color="1"></path>
        <path fill="#ffffff" d="M71.53 100.232v-.518l-.591-.025V84.215c0-.887-.23-1.585-.69-2.094-.46-.51-1.093-.764-1.898-.764-.706 0-1.273.164-1.7.493-.41.328-.616.73-.616 1.207v2.44c0 1.15-.403 2.053-1.207 2.71-.789.657-1.898.986-3.327.986-1.216 0-2.136-.271-2.76-.813-.608-.559-.912-1.33-.912-2.317 0-1.034.452-2.061 1.355-3.08.904-1.035 2.243-1.889 4.017-2.563 1.79-.673 4.017-1.01 6.678-1.01 3.203 0 5.586.624 7.146 1.873 1.577 1.232 2.366 2.924 2.366 5.076V98.68c0 .394.09.698.27.912.182.214.436.32.765.32.312 0 .558-.082.74-.246a3.42 3.42 0 0 0 .467-.518 1.45 1.45 0 0 1 .296-.27.558.558 0 0 1 .37-.124c.213 0 .37.082.468.246.098.165.148.37.148.617 0 .607-.222 1.256-.666 1.946-.443.674-1.108 1.257-1.996 1.75-.887.476-1.996.714-3.326.714-1.643 0-2.957-.353-3.943-1.059-.97-.707-1.454-1.618-1.454-2.735Zm-14.687-2.021c0-2.12.945-3.811 2.834-5.076 1.89-1.265 4.584-1.898 8.083-1.898 1.002 0 1.88.083 2.637.247.772.148 1.429.361 1.97.64l-.64 1.7a6.916 6.916 0 0 0-1.355-.517 5.097 5.097 0 0 0-1.454-.197c-1.068 0-1.914.32-2.538.961-.608.64-.912 1.544-.912 2.71 0 1.167.28 2.063.838 2.687.559.608 1.281.911 2.169.911a4.1 4.1 0 0 0 1.897-.468 4.133 4.133 0 0 0 1.503-1.232l.542 1.528c-.838 1.216-2.004 2.16-3.499 2.834a11.52 11.52 0 0 1-4.731.985c-2.201 0-3.976-.542-5.323-1.626-1.347-1.101-2.02-2.497-2.02-4.189Z" data-color="1"></path>
        <path fill="#ffffff" d="M94.906 81.159v17.988c0 .542.057.937.172 1.183.132.23.329.403.592.518l.74.271c.492.23.738.583.738 1.059 0 .805-.492 1.208-1.478 1.208h-10.3c-.51 0-.888-.099-1.134-.296-.23-.213-.345-.493-.345-.838 0-.263.074-.484.222-.665.148-.197.378-.361.69-.493l.813-.246a.996.996 0 0 0 .567-.493c.115-.247.172-.64.172-1.183v-13.38c0-.444-.066-.756-.197-.937-.115-.197-.304-.32-.567-.37l-.985-.123c-.28-.082-.493-.205-.641-.37-.132-.164-.197-.377-.197-.64 0-.296.082-.534.246-.715.18-.197.51-.377.986-.542l5.372-1.947c.657-.262 1.19-.443 1.602-.542.41-.115.804-.172 1.182-.172.575 0 1.01.164 1.306.493.296.312.444.722.444 1.232Zm-.789 5.692-1.207-1.257.862-.764c2.152-2.02 4.017-3.433 5.594-4.238 1.594-.805 3.08-1.207 4.46-1.207 2.087 0 3.754.681 5.003 2.045 1.265 1.347 1.897 3.162 1.897 5.446v12.271c0 .559.058.961.173 1.208a1.1 1.1 0 0 0 .591.493l.69.271c.493.23.739.583.739 1.059 0 .805-.501 1.208-1.503 1.208h-10.004c-.986 0-1.48-.403-1.48-1.208 0-.476.247-.829.74-1.059l.74-.271c.279-.115.476-.296.591-.542.115-.247.172-.65.172-1.208V88.083c0-1.248-.279-2.185-.837-2.809-.559-.624-1.348-.936-2.366-.936-.64 0-1.298.14-1.971.419-.658.279-1.315.706-1.972 1.28l-.912.814Zm15.796 0-1.183-1.257.838-.788c2.053-1.939 3.828-3.327 5.323-4.165 1.495-.838 2.907-1.256 4.238-1.256 2.021 0 3.606.681 4.756 2.045 1.15 1.347 1.84 3.162 2.07 5.446l1.306 12.247c.049.558.123.961.222 1.207a.971.971 0 0 0 .542.542l.714.222c.313.132.543.296.69.493.148.181.222.402.222.665 0 .345-.115.625-.345.838-.23.197-.599.296-1.109.296h-10.374c-.986 0-1.478-.403-1.478-1.208 0-.476.238-.829.714-1.059l.739-.271c.296-.115.51-.296.641-.542.148-.247.197-.658.148-1.233l-1.134-10.99c-.131-1.232-.443-2.16-.936-2.784-.493-.641-1.216-.961-2.168-.961-.559 0-1.134.147-1.725.443-.592.296-1.191.715-1.799 1.257l-.912.813Z" data-color="1"></path>
        <path fill="#ffffff" d="M145.313 100.232v-.518l-.591-.025V84.215c0-.887-.23-1.585-.69-2.094-.46-.51-1.092-.764-1.897-.764-.707 0-1.274.164-1.701.493-.41.328-.616.73-.616 1.207v2.44c0 1.15-.402 2.053-1.207 2.71-.789.657-1.898.986-3.327.986-1.216 0-2.135-.271-2.76-.813-.608-.559-.911-1.33-.911-2.317 0-1.034.451-2.061 1.355-3.08.903-1.035 2.242-1.889 4.016-2.563 1.791-.673 4.017-1.01 6.678-1.01 3.204 0 5.586.624 7.147 1.873 1.577 1.232 2.365 2.924 2.365 5.076V98.68c0 .394.091.698.271.912.181.214.436.32.764.32.312 0 .559-.082.739-.246.181-.164.337-.337.469-.518.098-.115.197-.205.295-.27a.56.56 0 0 1 .37-.124c.213 0 .37.082.468.246.099.165.148.37.148.617 0 .607-.222 1.256-.665 1.946-.444.674-1.109 1.257-1.996 1.75-.887.476-1.996.714-3.327.714-1.643 0-2.957-.353-3.943-1.059-.969-.707-1.454-1.618-1.454-2.735Zm-14.686-2.021c0-2.12.944-3.811 2.834-5.076 1.889-1.265 4.583-1.898 8.082-1.898 1.002 0 1.881.083 2.637.247.772.148 1.429.361 1.971.64l-.64 1.7a6.915 6.915 0 0 0-1.356-.517 5.094 5.094 0 0 0-1.454-.197c-1.067 0-1.913.32-2.538.961-.608.64-.911 1.544-.911 2.71 0 1.167.279 2.063.837 2.687.559.608 1.282.911 2.169.911.657 0 1.289-.156 1.897-.468.625-.312 1.126-.722 1.503-1.232l.543 1.528c-.838 1.216-2.005 2.16-3.5 2.834a11.515 11.515 0 0 1-4.731.985c-2.201 0-3.975-.542-5.323-1.626-1.347-1.101-2.02-2.497-2.02-4.189Z" data-color="1"></path>
        <path fill="#ffffff" d="M167.827 90.178c0-2.415.328-4.42.986-6.013.673-1.61 1.552-2.81 2.636-3.598 1.101-.788 2.276-1.182 3.524-1.182 1.626 0 2.867.476 3.721 1.429.871.953 1.306 2.349 1.306 4.189 0 1.79-.37 3.113-1.109 3.967-.723.855-1.659 1.282-2.809 1.282-1.166 0-2.045-.304-2.637-.912-.591-.624-.895-1.479-.912-2.563v-.96c-.016-.46-.123-.806-.32-1.036-.197-.246-.509-.37-.936-.37-.46 0-.887.19-1.282.567-.377.378-.69.978-.936 1.8-.23.82-.345 1.88-.345 3.178l-.887.222Zm.394-8.995.493 5.619v12.32c0 .494.082.855.246 1.085.165.214.501.361 1.011.444l2.02.369c.411.082.707.222.887.419.198.181.296.444.296.789 0 .361-.131.649-.394.862-.246.197-.608.296-1.084.296h-12.543c-.509 0-.879-.099-1.109-.296-.23-.213-.345-.493-.345-.838 0-.263.066-.493.197-.69.148-.197.386-.353.715-.468l.788-.246a.996.996 0 0 0 .567-.493c.115-.247.173-.64.173-1.183V85.841c0-.444-.066-.756-.198-.937-.115-.197-.303-.32-.566-.37l-.961-.123c-.296-.082-.51-.205-.641-.37a1.063 1.063 0 0 1-.197-.64c0-.295.082-.534.246-.714.181-.197.501-.378.961-.543l5.249-1.872c.904-.345 1.552-.567 1.947-.666.41-.098.731-.147.961-.147.378 0 .665.13.862.394.197.263.337.706.419 1.33Z" data-color="1"></path>
        <path fill="#ffffff" d="M60.953 127.447v-.518l-.591-.024v-15.476c0-.887-.23-1.585-.69-2.094-.46-.509-1.092-.764-1.897-.764-.707 0-1.274.164-1.7.493-.412.328-.617.731-.617 1.207v2.44c0 1.15-.402 2.053-1.207 2.71-.789.658-1.898.986-3.327.986-1.216 0-2.136-.271-2.76-.813-.608-.559-.912-1.331-.912-2.316 0-1.035.452-2.062 1.356-3.081.903-1.035 2.242-1.889 4.016-2.562 1.791-.674 4.017-1.011 6.678-1.011 3.204 0 5.586.625 7.146 1.873 1.578 1.232 2.366 2.924 2.366 5.076v12.321c0 .395.09.698.271.912.18.214.436.32.764.32.312 0 .559-.082.74-.246.18-.164.336-.337.468-.518.098-.115.197-.205.295-.271a.559.559 0 0 1 .37-.123c.213 0 .37.082.468.247.099.164.148.369.148.616 0 .607-.222 1.256-.665 1.946-.444.674-1.11 1.257-1.996 1.75-.888.476-1.996.715-3.327.715-1.643 0-2.957-.354-3.943-1.06-.969-.706-1.454-1.618-1.454-2.735Zm-14.686-2.021c0-2.119.944-3.811 2.834-5.076 1.889-1.265 4.583-1.898 8.082-1.898 1.002 0 1.881.083 2.637.247.772.148 1.429.361 1.971.641l-.64 1.7a6.925 6.925 0 0 0-1.356-.518 5.116 5.116 0 0 0-1.454-.197c-1.068 0-1.914.321-2.538.961-.608.641-.912 1.544-.912 2.711 0 1.166.28 2.062.838 2.686.559.608 1.282.912 2.169.912.657 0 1.29-.157 1.897-.469.624-.312 1.125-.722 1.503-1.232l.542 1.528c-.837 1.216-2.004 2.16-3.499 2.834a11.52 11.52 0 0 1-4.731.986c-2.201 0-3.975-.543-5.323-1.627-1.347-1.1-2.02-2.497-2.02-4.189Z" data-color="1"></path>
        <path fill="#ffffff" d="M84.33 108.374v17.988c0 .543.057.937.172 1.183.131.23.328.403.591.518l.74.271c.492.23.739.583.739 1.059 0 .805-.493 1.208-1.479 1.208h-10.3c-.51 0-.887-.099-1.134-.296-.23-.213-.345-.493-.345-.838 0-.262.074-.484.222-.665.148-.197.378-.361.69-.493l.813-.246a.996.996 0 0 0 .567-.493c.115-.247.172-.649.172-1.208v-13.38c0-.427-.065-.731-.197-.912-.115-.197-.303-.32-.566-.369l-.961-.124c-.296-.082-.51-.205-.641-.369-.132-.165-.197-.378-.197-.641 0-.312.082-.559.246-.739.18-.181.501-.353.961-.518l5.372-1.946a20.47 20.47 0 0 1 1.602-.543c.41-.115.805-.172 1.183-.172.575 0 1.01.164 1.306.493.295.312.443.723.443 1.232Zm-.79 5.692-1.207-1.257.863-.788c2.135-1.939 3.967-3.327 5.495-4.165 1.544-.837 2.982-1.256 4.312-1.256 2.004 0 3.573.673 4.707 2.02 1.133 1.347 1.815 3.154 2.045 5.422l1.281 12.296c.066.558.148.961.247 1.207a.889.889 0 0 0 .542.518l.764.246c.312.132.534.296.665.493.148.181.222.403.222.665 0 .345-.115.625-.345.838-.23.197-.6.296-1.109.296H91.599c-.986 0-1.479-.403-1.479-1.208 0-.476.247-.829.74-1.059l.763-.271a1.18 1.18 0 0 0 .616-.542c.148-.247.197-.641.148-1.183l-1.158-11.114c-.131-1.215-.435-2.127-.912-2.735-.46-.624-1.166-.936-2.119-.936-.591 0-1.207.148-1.848.443-.624.296-1.257.715-1.897 1.257l-.912.813Z" data-color="1"></path>
        <path fill="#ffffff" d="M127.423 113.697c0 1.084-.395 1.996-1.183 2.735-.772.739-1.807 1.109-3.105 1.109-1.281 0-2.251-.345-2.908-1.035-.657-.707-.986-1.618-.986-2.736v-.911c0-1.101-.279-1.963-.837-2.588-.542-.64-1.274-.961-2.193-.961-.805 0-1.536.271-2.194.813-.64.526-1.158 1.306-1.552 2.341-.378 1.035-.567 2.309-.567 3.82 0 2.004.329 3.688.986 5.052.673 1.363 1.593 2.39 2.76 3.08 1.166.69 2.489 1.035 3.967 1.035 1.265 0 2.374-.214 3.327-.641.953-.427 1.766-1.109 2.439-2.045.345-.345.608-.575.789-.69.197-.115.394-.173.591-.173.263 0 .452.132.567.395.131.246.197.55.197.911-.066 1.462-.567 2.801-1.503 4.017-.92 1.216-2.185 2.193-3.795 2.932-1.61.723-3.458 1.085-5.544 1.085-2.399 0-4.534-.485-6.407-1.454-1.873-.97-3.351-2.333-4.436-4.091-1.084-1.758-1.626-3.819-1.626-6.185 0-2.464.534-4.666 1.602-6.604a11.86 11.86 0 0 1 4.534-4.608c1.955-1.134 4.246-1.7 6.875-1.7 2.119 0 3.934.32 5.446.961 1.528.624 2.702 1.478 3.524 2.562.821 1.068 1.232 2.259 1.232 3.574Z" data-color="1"></path>
        <path fill="#ffffff" d="M152.991 116.062c0 .92-.255 1.635-.764 2.144-.509.509-1.249.764-2.218.764h-15.031v-2.045h8.304c.821 0 1.232-.378 1.232-1.134 0-2.234-.32-3.869-.961-4.904-.641-1.051-1.478-1.577-2.513-1.577-.789 0-1.495.263-2.12.789-.607.525-1.092 1.314-1.454 2.365-.344 1.035-.517 2.325-.517 3.869 0 3.122.706 5.438 2.119 6.949 1.413 1.495 3.319 2.243 5.717 2.243 1.314 0 2.473-.23 3.475-.69 1.018-.477 1.856-1.208 2.513-2.193.345-.345.616-.575.813-.69.197-.115.386-.173.567-.173.263 0 .46.131.591.394.132.247.198.551.198.912-.05 1.462-.551 2.817-1.504 4.066-.936 1.232-2.234 2.226-3.893 2.982-1.643.739-3.54 1.109-5.692 1.109-2.415 0-4.567-.493-6.456-1.479-1.89-.986-3.385-2.357-4.485-4.115-1.085-1.758-1.627-3.811-1.627-6.161 0-2.579.51-4.829 1.528-6.752a10.967 10.967 0 0 1 4.436-4.509c1.922-1.084 4.222-1.626 6.899-1.626 2.333 0 4.305.41 5.915 1.232 1.626.805 2.85 1.922 3.671 3.351.838 1.413 1.257 3.039 1.257 4.879Z" data-color="1"></path>
    </g>
</svg>