<svg width="792" height="808" viewBox="0 0 792 808" fill="none" xmlns="http://www.w3.org/2000/svg">
<mask id="mask0_28_2" style="mask-type:luminance" maskUnits="userSpaceOnUse" x="0" y="0" width="792" height="808">
<path d="M0 0L791.094 0V807.672H0L0 0Z" fill="white"/>
</mask>
<g mask="url(#mask0_28_2)">
<mask id="mask1_28_2" style="mask-type:luminance" maskUnits="userSpaceOnUse" x="0" y="0" width="791" height="808">
<path d="M696.768 749.745H516.372C515.983 749.745 515.638 749.183 515.27 748.081L436.226 586.966L429.741 573.759C429.179 572.527 422.976 559.71 411.109 535.372C402.701 518.102 391.44 495.039 377.347 466.183H558.542C562.412 474.051 566.367 482.135 570.431 490.457C573.738 497.438 615.843 583.68 696.768 749.205V749.745ZM311.531 645.736C296.466 614.848 288.058 597.665 286.328 594.207C286.328 594.185 286.307 594.185 286.307 594.185L223.452 466.205H312.504C325.883 493.591 341.186 524.932 358.413 560.228C358.478 560.337 358.521 560.445 358.586 560.553C367.448 578.709 375.813 595.784 383.637 611.779C414.352 674.613 436.896 720.63 451.248 749.875H362.369C340.884 705.868 323.959 671.176 311.531 645.757M95.9688 744.795L195.288 541.229C195.504 541.662 208.213 567.642 233.416 619.128C240.765 634.15 249.195 651.334 258.64 670.679C270.031 693.915 282.913 720.263 297.352 749.767H93.2237C94.6719 746.827 95.6229 745.184 95.9688 744.795ZM304.528 317.237C362.628 198.422 392.78 136.82 394.985 132.411L455.679 256.544C458.597 262.401 483.518 313.174 530.422 408.818H349.292C335.999 381.649 321.085 351.129 304.528 317.237ZM712.222 648.783C643.077 506.473 607.413 433.264 605.187 429.222C603.717 426.283 566.756 350.697 494.304 202.485C428.466 68.2372 395.547 0.756512 395.547 0L394.985 0C394.985 0.389065 391.483 7.37057 384.523 20.9878L358.024 75.0458C354.717 82.049 315.184 162.758 239.425 317.237C241.997 322.036 243.467 324.781 243.856 325.516C247.552 333.124 261.083 360.899 284.513 408.818H195.007V409.056C194.466 409.661 193.472 411.585 191.981 414.892L112.526 577.628C109.953 582.405 72.4521 659.094 0 807.672H390.576C390.511 807.521 390.424 807.37 390.359 807.218H479.584C479.779 807.499 479.909 807.672 479.952 807.672H790.013L712.222 648.783Z" fill="white"/>
</mask>
<g mask="url(#mask1_28_2)">
<path d="M0 0L789.581 0V807.672H0L0 0Z" fill="#FFCD1A"/>
</g>
</g>
</svg>
