<svg preserveAspectRatio="xMidYMid meet" data-bbox="20 80 160 39.734" xmlns="http://www.w3.org/2000/svg" viewBox="20 80 160 39.734" height="200" width="200" data-type="color" role="presentation" aria-hidden="true" aria-label=""><defs><style>#comp-m8r5a1rh7__item-lxnbb856 svg [data-color="1"] {fill: #FFFFFF;}</style></defs>
    <g>
        <path fill="#ffffff" d="m29.173 98.112 11.185-14.555h11.326l-13.993 16.708 15.303 18.579H41.107l-11.934-15.303v15.303H20V83.557h9.173v14.555Z" data-color="1"></path>
        <path fill="#ffffff" d="M62.916 101.903v16.941h-8.471v-16.941h-2.808v-7.067h2.808v-7.207h8.47v7.207h4.821v7.067h-4.82Z" data-color="1"></path>
        <path fill="#ffffff" d="M77.224 94.836v24.008h-8.471V94.836h8.47Zm-9.033-9.22c0-.655.125-1.264.374-1.825a4.785 4.785 0 0 1 1.03-1.545c.437-.436.936-.78 1.498-1.03a4.775 4.775 0 0 1 1.872-.374c.655 0 1.263.125 1.825.375.593.25 1.107.593 1.544 1.03.437.436.78.951 1.03 1.544.25.561.374 1.17.374 1.825s-.124 1.28-.374 1.872a4.936 4.936 0 0 1-1.03 1.498c-.437.436-.951.78-1.544 1.03a4.453 4.453 0 0 1-1.825.374c-.656 0-1.28-.125-1.872-.375a4.936 4.936 0 0 1-1.498-1.03 4.936 4.936 0 0 1-1.03-1.497 4.775 4.775 0 0 1-.374-1.872Z" data-color="1"></path>
        <path fill="#ffffff" d="M88.675 80v38.844h-8.47V80h8.47Z" data-color="1"></path>
        <path fill="#ffffff" d="M99.518 106.77c0 .78.14 1.513.421 2.2a5.91 5.91 0 0 0 1.124 1.731 5.48 5.48 0 0 0 1.731 1.17c.687.281 1.42.421 2.2.421.749 0 1.451-.14 2.106-.421a4.862 4.862 0 0 0 1.731-1.17c.5-.499.89-1.076 1.17-1.731a4.842 4.842 0 0 0 .468-2.107c0-.748-.156-1.45-.468-2.106a5.322 5.322 0 0 0-1.17-1.778 4.862 4.862 0 0 0-1.731-1.17 5.284 5.284 0 0 0-2.106-.421c-.78 0-1.513.14-2.2.421a5.48 5.48 0 0 0-1.731 1.17 5.902 5.902 0 0 0-1.124 1.732 4.959 4.959 0 0 0-.42 2.059Zm10.671-11.934h8.517v24.008h-8.517v-2.667c-1.81 2.277-4.259 3.416-7.348 3.416-1.747 0-3.354-.312-4.82-.936a11.927 11.927 0 0 1-3.838-2.714c-1.092-1.155-1.95-2.512-2.574-4.072-.593-1.56-.89-3.26-.89-5.101 0-1.716.297-3.339.89-4.867.593-1.56 1.42-2.918 2.48-4.072a11.407 11.407 0 0 1 3.791-2.714c1.467-.687 3.089-1.03 4.867-1.03 2.996 0 5.476 1.045 7.442 3.136v-2.387Z" data-color="1"></path>
        <path fill="#ffffff" d="M121.663 94.836h8.471v3.931c.904-1.435 2.012-2.527 3.323-3.276 1.31-.78 2.839-1.17 4.586-1.17h.702c.281 0 .593.031.936.094v8.096c-1.123-.562-2.34-.842-3.65-.842-1.966 0-3.448.592-4.447 1.778-.967 1.154-1.45 2.855-1.45 5.101v10.296h-8.471V94.836Z" data-color="1"></path>
        <path fill="#ffffff" d="M149.126 94.836v24.008h-8.471V94.836h8.471Zm-9.032-9.22c0-.655.125-1.264.374-1.825a4.789 4.789 0 0 1 1.03-1.545c.437-.436.936-.78 1.497-1.03a4.777 4.777 0 0 1 1.872-.374 4.44 4.44 0 0 1 1.826.375c.592.25 1.107.593 1.544 1.03.437.436.78.951 1.03 1.544.249.561.374 1.17.374 1.825s-.125 1.28-.374 1.872a4.94 4.94 0 0 1-1.03 1.498c-.437.436-.952.78-1.544 1.03a4.455 4.455 0 0 1-1.826.374 4.777 4.777 0 0 1-1.872-.375 4.943 4.943 0 0 1-1.497-1.03 4.94 4.94 0 0 1-1.03-1.497 4.786 4.786 0 0 1-.374-1.872Z" data-color="1"></path>
        <path fill="#ffffff" d="M160.11 106.723c0 .811.14 1.56.421 2.247a6.757 6.757 0 0 0 1.17 1.731 5.473 5.473 0 0 0 1.732 1.17 5.625 5.625 0 0 0 2.152.421c.749 0 1.451-.14 2.106-.421a4.857 4.857 0 0 0 1.732-1.17 5.48 5.48 0 0 0 1.17-1.731c.312-.687.468-1.42.468-2.2 0-.749-.156-1.451-.468-2.106a5.357 5.357 0 0 0-1.17-1.779 4.857 4.857 0 0 0-1.732-1.17 5.302 5.302 0 0 0-2.106-.421c-.748 0-1.466.141-2.152.421a5.473 5.473 0 0 0-1.732 1.17 6.78 6.78 0 0 0-1.17 1.732 5.284 5.284 0 0 0-.421 2.106Zm-8.939-.094c0-1.778.359-3.432 1.076-4.96a11.927 11.927 0 0 1 2.996-4.025c1.279-1.154 2.792-2.06 4.539-2.715 1.779-.655 3.713-.982 5.803-.982 2.06 0 3.963.327 5.71.983 1.779.623 3.307 1.513 4.587 2.667a11.55 11.55 0 0 1 3.042 4.072c.717 1.56 1.076 3.291 1.076 5.194 0 1.904-.374 3.651-1.123 5.242a12.44 12.44 0 0 1-2.995 4.072c-1.28 1.123-2.824 1.997-4.634 2.621-1.778.624-3.713.936-5.803.936-2.059 0-3.962-.312-5.71-.936-1.747-.624-3.26-1.514-4.539-2.668a12.606 12.606 0 0 1-2.949-4.118c-.717-1.623-1.076-3.417-1.076-5.383Z" data-color="1"></path>
    </g>
</svg>