<svg preserveAspectRatio="xMidYMid meet" data-bbox="20 79 160 41.233" xmlns="http://www.w3.org/2000/svg" viewBox="20 79 160 41.233" height="200" width="200" data-type="color" role="presentation" aria-hidden="true" aria-label=""><defs><style>#comp-m8r5a1rh7__item-j9ples3e svg [data-color="1"] {fill: #FFFFFF;}</style></defs>
    <g>
        <path fill="#ffffff" d="M20 79h5.496v16.597h20.89V79h5.496v40.167h-5.496v-18.785h-20.89v18.785H20V79Z" data-color="1"></path>
        <path fill="#ffffff" d="M79.192 94.476c.675 1.477.967 3.2.875 5.168.019 1.349-.291 3.5-.93 6.453H57.674c-.547 2.971-.355 5.359.575 7.164.948 1.786 2.798 2.68 5.55 2.68 2.57 0 4.794-.848 6.672-2.543a11.279 11.279 0 0 0 2.598-3.418h4.84c-.365 1.075-1.049 2.278-2.051 3.609-.985 1.313-2.015 2.388-3.09 3.227-1.805 1.458-3.865 2.442-6.18 2.953-1.258.291-2.634.437-4.129.437-3.645 0-6.453-1.321-8.421-3.965-1.969-2.661-2.443-6.38-1.422-11.156 1.002-4.703 3.09-8.522 6.261-11.456 3.172-2.935 6.818-4.403 10.938-4.403 2.078 0 3.992.493 5.742 1.477 1.75.966 2.962 2.224 3.636 3.773Zm-4.292 7.711c.255-2.133.154-3.837-.301-5.113-.839-2.37-2.835-3.555-5.988-3.555-2.26 0-4.33.82-6.207 2.461-1.878 1.622-3.136 3.691-3.774 6.207H74.9Z" data-color="1"></path>
        <path fill="#ffffff" d="M80.249 79h4.922v40.167h-4.922V79Z" data-color="1"></path>
        <path fill="#ffffff" d="m89.387 89.883 7.82 23.843 8.176-23.843h5.386l-11.046 29.284h-5.25l-10.8-29.284h5.714Z" data-color="1"></path>
        <path fill="#ffffff" d="M132.538 94.476c.674 1.477.966 3.2.875 5.168.018 1.349-.292 3.5-.93 6.453h-21.464c-.547 2.971-.356 5.359.574 7.164.948 1.786 2.798 2.68 5.551 2.68 2.57 0 4.794-.848 6.671-2.543a11.274 11.274 0 0 0 2.598-3.418h4.84c-.365 1.075-1.048 2.278-2.051 3.609-.984 1.313-2.014 2.388-3.09 3.227-1.804 1.458-3.864 2.442-6.179 2.953-1.258.291-2.634.437-4.129.437-3.646 0-6.453-1.321-8.422-3.965-1.969-2.661-2.443-6.38-1.422-11.156 1.003-4.703 3.09-8.522 6.262-11.456 3.172-2.935 6.817-4.403 10.937-4.403 2.078 0 3.992.493 5.742 1.477 1.75.966 2.962 2.224 3.637 3.773Zm-4.293 7.711c.255-2.133.155-3.837-.301-5.113-.838-2.37-2.834-3.555-5.988-3.555-2.26 0-4.329.82-6.207 2.461-1.877 1.622-3.135 3.691-3.773 6.207h16.269Z" data-color="1"></path>
        <path fill="#ffffff" d="M133.178 90.02h5.003v29.147h-5.003V90.019Zm0-11.02h5.003v5.578h-5.003V79Z" data-color="1"></path>
        <path fill="#ffffff" d="M151.667 115.995c3.263 0 5.496-1.23 6.699-3.691 1.221-2.479 1.832-5.232 1.832-8.258 0-2.734-.437-4.958-1.312-6.671-1.386-2.698-3.774-4.047-7.164-4.047-3.008 0-5.195 1.148-6.563 3.445-1.367 2.297-2.05 5.068-2.05 8.312 0 3.117.683 5.715 2.05 7.793 1.368 2.078 3.537 3.117 6.508 3.117Zm.191-26.96c3.774 0 6.964 1.258 9.571 3.773 2.606 2.516 3.91 6.216 3.91 11.102 0 4.721-1.149 8.622-3.446 11.702-2.296 3.081-5.86 4.621-10.691 4.621-4.028 0-7.227-1.358-9.597-4.074-2.37-2.734-3.555-6.398-3.555-10.992 0-4.921 1.249-8.84 3.746-11.757 2.498-2.917 5.852-4.375 10.062-4.375Z" data-color="1"></path>
        <path fill="#ffffff" d="M165.754 89.883h4.676v5.058c.383-.984 1.321-2.178 2.816-3.582 1.495-1.422 3.218-2.133 5.168-2.133.091 0 .246.01.465.028.219.018.592.054 1.121.109v5.195a7.309 7.309 0 0 0-.82-.11 10.39 10.39 0 0 0-.793-.026c-2.479 0-4.384.802-5.715 2.406-1.331 1.586-1.996 3.418-1.996 5.496v16.843h-4.922V89.883Z" data-color="1"></path>
    </g>
</svg>