<svg preserveAspectRatio="xMidYMid meet" data-bbox="20 79 160 41.663" xmlns="http://www.w3.org/2000/svg" viewBox="20 79 160 41.663" height="200" width="200" data-type="color" role="presentation" aria-hidden="true" aria-label=""><defs><style>#comp-m8r5a1rh7__item-lxnbb4oo svg [data-color="1"] {fill: #FFFFFF;}</style></defs>
    <g>
        <path fill="#ffffff" d="M23.449 84.058v10.577h16.509v3.357h-16.51v13.198H20V80.748h21.98v3.31H23.45Z" data-color="1"></path>
        <path fill="#ffffff" d="M40.331 88.197h3.449v22.993h-3.449V88.197Zm3.587-8.37v4.507h-3.725v-4.506h3.725Z" data-color="1"></path>
        <path fill="#ffffff" d="M47.692 111.19h-3.449V79h3.45v32.19Z" data-color="1"></path>
        <path fill="#ffffff" d="M66.09 107.511c-1.84 2.698-4.583 4.047-8.231 4.047-3.311 0-6.009-1.15-8.094-3.449-2.023-2.269-3.035-5.074-3.035-8.415 0-3.342 1.012-6.147 3.035-8.416 2.085-2.3 4.86-3.449 8.324-3.449 3.464 0 6.131 1.365 8.001 4.093v-3.725h3.45v22.993h-3.45v-3.679Zm-7.771.92c2.483 0 4.445-.859 5.886-2.575 1.38-1.625 2.07-3.679 2.07-6.162 0-2.484-.69-4.538-2.07-6.163-1.441-1.716-3.403-2.575-5.886-2.575-2.453 0-4.446.859-5.979 2.575-1.44 1.625-2.16 3.68-2.16 6.162 0 2.484.72 4.538 2.16 6.163 1.533 1.716 3.526 2.575 5.979 2.575Z" data-color="1"></path>
        <path fill="#ffffff" d="M73.435 88.197v3.587a11.538 11.538 0 0 1 3.035-2.805c1.196-.767 2.56-1.15 4.093-1.15s2.851.215 3.955.644a8.016 8.016 0 0 1 2.897 1.931c1.9 1.87 2.851 4.338 2.851 7.404v13.382h-3.449V97.9c0-2.115-.598-3.801-1.793-5.058-1.196-1.257-2.744-1.886-4.645-1.886-1.931 0-3.571.644-4.92 1.932-1.35 1.318-2.024 3.004-2.024 5.058v13.244h-3.448V88.197h3.448Z" data-color="1"></path>
        <path fill="#ffffff" d="M108.449 107.511c-1.839 2.698-4.583 4.047-8.231 4.047-3.311 0-6.01-1.15-8.094-3.449-2.023-2.269-3.035-5.074-3.035-8.415 0-3.342 1.012-6.147 3.035-8.416 2.085-2.3 4.86-3.449 8.324-3.449 3.464 0 6.131 1.365 8.001 4.093V79h3.449v32.19h-3.449v-3.679Zm-7.771.92c2.483 0 4.445-.859 5.886-2.575 1.379-1.625 2.069-3.679 2.069-6.162 0-2.484-.69-4.538-2.069-6.163-1.441-1.716-3.403-2.575-5.886-2.575-2.453 0-4.446.859-5.979 2.575-1.44 1.625-2.161 3.68-2.161 6.162 0 2.484.72 4.538 2.161 6.163 1.533 1.716 3.526 2.575 5.979 2.575Z" data-color="1"></path>
        <path fill="#ffffff" d="M112.346 88.197h3.448v22.993h-3.448V88.197Zm3.586-8.37v4.507h-3.724v-4.506h3.724Z" data-color="1"></path>
        <path fill="#ffffff" d="M119.707 88.197v3.587a11.537 11.537 0 0 1 3.035-2.805c1.195-.767 2.56-1.15 4.093-1.15 1.532 0 2.851.215 3.954.644a8.007 8.007 0 0 1 2.897 1.931c1.901 1.87 2.852 4.338 2.852 7.404v13.382h-3.449V97.9c0-2.115-.598-3.801-1.794-5.058-1.195-1.257-2.744-1.886-4.644-1.886-1.932 0-3.572.644-4.921 1.932-1.349 1.318-2.023 3.004-2.023 5.058v13.244h-3.449V88.197h3.449Z" data-color="1"></path>
        <path fill="#ffffff" d="M154.721 91.876v-3.679h3.448V110.5c0 3.311-.95 5.825-2.851 7.542-1.87 1.747-4.399 2.621-7.587 2.621-3.189 0-5.687-.613-7.496-1.839-1.778-1.227-2.989-2.852-3.633-4.875h3.817c.981 2.391 3.219 3.587 6.714 3.587 2.667 0 4.598-.613 5.794-1.84 1.196-1.226 1.794-3.035 1.794-5.426v-3.173c-1.871 2.729-4.614 4.093-8.232 4.093-3.311 0-6.009-1.134-8.093-3.403-2.024-2.207-3.035-4.966-3.035-8.277 0-3.311 1.011-6.07 3.035-8.278 2.084-2.269 4.859-3.403 8.323-3.403 3.495 0 6.162 1.35 8.002 4.047Zm-7.772 16.187c1.257 0 2.376-.215 3.357-.644a8.03 8.03 0 0 0 2.529-1.839c1.38-1.594 2.069-3.618 2.069-6.07 0-2.453-.689-4.476-2.069-6.07-1.502-1.656-3.464-2.484-5.886-2.484-2.483 0-4.476.828-5.978 2.483-1.441 1.625-2.161 3.649-2.161 6.07 0 2.422.72 4.446 2.161 6.071 1.502 1.655 3.495 2.483 5.978 2.483Z" data-color="1"></path>
        <path fill="#ffffff" d="M168.596 87.83c3.433 0 6.223 1.149 8.369 3.448 2.023 2.207 3.035 5.013 3.035 8.415 0 3.403-1.012 6.209-3.035 8.416-2.146 2.299-4.936 3.449-8.369 3.449-3.434 0-6.224-1.15-8.37-3.449-2.023-2.207-3.035-5.013-3.035-8.415 0-3.403 1.012-6.209 3.035-8.416 2.146-2.3 4.936-3.449 8.37-3.449Zm0 20.601c2.483 0 4.445-.859 5.886-2.575 1.379-1.625 2.069-3.679 2.069-6.162 0-2.484-.69-4.538-2.069-6.163-1.441-1.716-3.403-2.575-5.886-2.575-2.484 0-4.446.859-5.887 2.575-1.379 1.625-2.069 3.68-2.069 6.162 0 2.484.69 4.538 2.069 6.163 1.441 1.716 3.403 2.575 5.887 2.575Z" data-color="1"></path>
    </g>
</svg>