<svg preserveAspectRatio="xMidYMid meet" data-bbox="20 85 160 30.068" xmlns="http://www.w3.org/2000/svg" viewBox="20 85 160 30.068" height="200" width="200" data-type="color" role="presentation" aria-hidden="true" aria-label=""><defs><style>#comp-m8r5a1rh7__item-j9plerjk svg [data-color="1"] {fill: #FFFFFF;}</style></defs>
    <g>
        <path fill="#ffffff" d="M28.497 86.897h-2.64v24.582c0 .715.247 1.334.742 1.856.523.495 1.155.743 1.898.743h.494l.042.412H20v-.412h.536a2.47 2.47 0 0 0 1.815-.743 2.546 2.546 0 0 0 .825-1.814V88.63a2.547 2.547 0 0 0-.825-1.815 2.404 2.404 0 0 0-1.815-.784H20v-.412h11.136c2.502 0 4.468.7 5.898 2.103 1.43 1.375 2.145 3.176 2.145 5.403 0 2.2-.688 4.111-2.062 5.733-1.348 1.595-2.997 2.393-4.95 2.393.413.192.894.577 1.444 1.154a12.76 12.76 0 0 1 1.526 1.733c2.365 3.382 3.904 5.472 4.62 6.269.714.77 1.223 1.306 1.526 1.609.302.274.632.549.99.824a5.62 5.62 0 0 0 1.072.66c.797.385 1.65.578 2.557.578v.412h-2.269c-1.182 0-2.282-.206-3.3-.618-1.017-.44-1.786-.88-2.309-1.32a30.35 30.35 0 0 1-1.32-1.32c-.357-.44-1.375-1.87-3.052-4.29-1.677-2.419-2.653-3.794-2.928-4.124a15.477 15.477 0 0 0-.866-1.031c-.88-.935-1.76-1.403-2.64-1.403v-.412c.22.028.509.041.866.041.358 0 .797-.014 1.32-.041 3.41-.082 5.554-1.512 6.434-4.29.165-.55.248-1.058.248-1.526v-.948c-.055-1.843-.537-3.327-1.444-4.455-.907-1.127-2.131-1.732-3.67-1.814a61.286 61.286 0 0 0-2.476-.042Z" data-color="1"></path>
        <path fill="#ffffff" d="M44.575 89.207c2.75-2.777 6.324-4.166 10.724-4.166s7.974 1.389 10.724 4.166c2.75 2.75 4.124 6.366 4.124 10.847 0 4.482-1.375 8.112-4.124 10.889-2.75 2.75-6.325 4.125-10.724 4.125-4.4 0-7.974-1.375-10.724-4.125-2.722-2.777-4.083-6.407-4.083-10.889 0-4.481 1.361-8.097 4.083-10.847Zm2.269 20.829c2.144 2.529 4.963 3.794 8.455 3.794 3.52 0 6.338-1.265 8.455-3.794 2.145-2.53 3.217-5.857 3.217-9.982 0-2.722-.48-5.128-1.443-7.217-.963-2.09-2.338-3.699-4.125-4.826-1.76-1.155-3.794-1.732-6.104-1.732-3.492 0-6.31 1.264-8.455 3.794-2.118 2.53-3.176 5.857-3.176 9.981 0 4.125 1.058 7.452 3.176 9.982Z" data-color="1"></path>
        <path fill="#ffffff" d="M81.834 85.619c4.4 0 7.96 1.333 10.683 4 2.75 2.64 4.124 6.118 4.124 10.435s-1.374 7.81-4.124 10.477c-2.722 2.639-6.283 3.959-10.683 3.959H67.852v-.412h.536a2.47 2.47 0 0 0 1.815-.743c.523-.522.798-1.141.825-1.856V88.382c0-.66-.275-1.21-.825-1.65a2.639 2.639 0 0 0-1.815-.7h-.494l-.042-.413h13.982Zm-8.125 1.237v26.397h8.125c2.31 0 4.345-.55 6.105-1.65 1.787-1.1 3.162-2.64 4.124-4.619.99-2.008 1.485-4.317 1.485-6.93 0-3.96-1.086-7.149-3.258-9.568-2.145-2.42-4.964-3.63-8.456-3.63H73.71Z" data-color="1"></path>
        <path fill="#ffffff" d="M99.638 89.207c2.749-2.777 6.324-4.166 10.723-4.166 4.4 0 7.974 1.389 10.724 4.166 2.75 2.75 4.124 6.366 4.124 10.847 0 4.482-1.374 8.112-4.124 10.889-2.75 2.75-6.324 4.125-10.724 4.125-4.399 0-7.974-1.375-10.724-4.125-2.722-2.777-4.083-6.407-4.083-10.889 0-4.481 1.361-8.097 4.084-10.847Zm2.268 20.829c2.145 2.529 4.963 3.794 8.455 3.794 3.52 0 6.338-1.265 8.455-3.794 2.145-2.53 3.218-5.857 3.218-9.982 0-2.722-.482-5.128-1.444-7.217-.962-2.09-2.337-3.699-4.125-4.826-1.759-1.155-3.794-1.732-6.104-1.732-3.492 0-6.31 1.264-8.455 3.794-2.117 2.53-3.176 5.857-3.176 9.981 0 4.125 1.059 7.452 3.176 9.982Z" data-color="1"></path>
        <path fill="#ffffff" d="M152.529 86.031a2.42 2.42 0 0 0-1.774.742 2.432 2.432 0 0 0-.784 1.733v21.282c0 1.595.097 3.107.289 4.537l.083.743h-.372l-22.478-24.005v20.54c.027.962.453 1.677 1.278 2.145.385.22.798.33 1.238.33h.783v.412h-8.496v-.412h.784c.687 0 1.278-.234 1.773-.701.495-.495.742-1.1.742-1.815V90.156c0-1.678-.096-3.176-.288-4.496l-.083-.66h.413l22.478 24.005V88.547c-.027-.715-.288-1.306-.783-1.773a2.42 2.42 0 0 0-1.774-.743h-.784v-.412h8.497v.412h-.742Z" data-color="1"></path>
        <path fill="#ffffff" d="M165.193 85.619c4.399 0 7.96 1.333 10.682 4 2.75 2.64 4.125 6.118 4.125 10.435s-1.375 7.81-4.125 10.477c-2.722 2.639-6.283 3.959-10.682 3.959h-13.982v-.412h.536a2.47 2.47 0 0 0 1.815-.743c.522-.522.797-1.141.825-1.856V88.382c0-.66-.275-1.21-.825-1.65a2.64 2.64 0 0 0-1.815-.7h-.495l-.041-.413h13.982Zm-8.125 1.237v26.397h8.125c2.31 0 4.344-.55 6.104-1.65 1.788-1.1 3.162-2.64 4.125-4.619.99-2.008 1.485-4.317 1.485-6.93 0-3.96-1.087-7.149-3.259-9.568-2.144-2.42-4.963-3.63-8.455-3.63h-8.125Z" data-color="1"></path>
    </g>
</svg>